<svg xmlns="http://www.w3.org/2000/svg" xmlns:xlink="http://www.w3.org/1999/xlink" width="146.767" height="44.231" viewBox="0 0 146.767 44.231">
  <defs>
    <filter id="Path_21050" x="0" y="0" width="44.231" height="44.231" filterUnits="userSpaceOnUse">
      <feOffset input="SourceAlpha"/>
      <feGaussianBlur stdDeviation="2.5" result="blur"/>
      <feFlood flood-opacity="0.09"/>
      <feComposite operator="in" in2="blur"/>
      <feComposite in="SourceGraphic"/>
    </filter>
  </defs>
  <g id="_5428d693" data-name="5428d693" transform="translate(-8.208 -2.135)">
    <path id="Path_21043" data-name="Path 21043" d="M87.157,8l-.743-.743-.706.731.719.731Zm-2.85,5.944H82.895a.159.159,0,0,1-.122,0h-.012a.134.134,0,0,1-.054,0H81.153v.037h-.536l-.317-.061-.292-.11a.976.976,0,0,1-.256-.183A1.778,1.778,0,0,1,78.534,14H74.028a1.755,1.755,0,0,1-.56-.1,1.352,1.352,0,0,1-.621-.475,1.4,1.4,0,0,1-.268-.585,1.483,1.483,0,0,1,0-.414,1.941,1.941,0,0,1,0-.438.81.81,0,0,1,.085-.438.355.355,0,0,0,.044-.188.211.211,0,0,1,.053-.165.117.117,0,0,0,.013-.169A.065.065,0,0,1,72.761,11l.475.158.475.146a.339.339,0,0,1-.085.256l-.073.3v.317a2.32,2.32,0,0,0,0,.244.766.766,0,0,0,0,.317.378.378,0,0,0,.134.171.293.293,0,0,0,.158.085h4.726a1.219,1.219,0,0,0,.378,0,.426.426,0,0,0,.231-.122.4.4,0,0,0,.085-.292V11.218h1.011v1.218a.718.718,0,0,0,0,.244.462.462,0,0,0,.11.158.3.3,0,0,0,.146.1.377.377,0,0,0,.146.061h.28a.159.159,0,0,1,.122,0h.073v0l1.443.031A.188.188,0,0,1,82.6,13a.159.159,0,0,1,.122,0l1.705.037a.208.208,0,0,1,.122,0h1.388a3.645,3.645,0,0,0,.56,0,1.953,1.953,0,0,0,.365-.1.755.755,0,0,0,.207-.134.573.573,0,0,0,.11-.146,4.158,4.158,0,0,1-.95,0,1.788,1.788,0,0,1-.719-.244,1.218,1.218,0,0,1-.451-.487,1.462,1.462,0,0,1-.158-.719,1.546,1.546,0,0,1,.122-.633,1.632,1.632,0,0,1,.353-.585,1.535,1.535,0,0,1,.524-.353,1.5,1.5,0,0,1,.658-.11,2,2,0,0,1,.572.11,1.679,1.679,0,0,1,.426.268,1.5,1.5,0,0,1,.292.378,2.193,2.193,0,0,1,.195.463,4,4,0,0,1,.11.524,4.155,4.155,0,0,1,0,.548v.3a2.436,2.436,0,0,1-.219.913,1.632,1.632,0,0,1-.5.572,2.2,2.2,0,0,1-.694.292,4.419,4.419,0,0,1-.816.073h-1.62Zm2.29-3.435a1.047,1.047,0,0,0-.28,0,.573.573,0,0,0-.244.122.512.512,0,0,0-.158.195.487.487,0,0,0-.061.268.512.512,0,0,0,.365.5,1.9,1.9,0,0,0,1.047,0v-.365a1.79,1.79,0,0,0-.1-.365.731.731,0,0,0-.195-.28A.719.719,0,0,0,86.6,10.512ZM30.4,8.088a.609.609,0,0,1,1.218,0,.548.548,0,0,1-.146.39.682.682,0,0,1-.877,0A.548.548,0,0,1,30.4,8.088Zm1.1,5.822H30.462V9.282H31.5Zm-4.665.061h-1V8.234h1ZM24.25,8.77l-.719.731.719.731.731-.731Zm.3,5.956a3.239,3.239,0,0,0,.195-1V11.206h-.987v2.436a2.844,2.844,0,0,1-.085.694,1.108,1.108,0,0,1-.268.451,1.01,1.01,0,0,1-.463.256,2.578,2.578,0,0,1-.658.073h-.5v1h.5a2.935,2.935,0,0,0,1.011-.171,2.1,2.1,0,0,0,.755-.475A2.277,2.277,0,0,0,24.555,14.726ZM37.282,12.57a3.9,3.9,0,0,0,.317-1.608V10.6a3.716,3.716,0,0,0-.329-1.632,2.436,2.436,0,0,0-.9-1.047,2.679,2.679,0,0,0-2.7,0,2.546,2.546,0,0,0-.913,1.072,3.9,3.9,0,0,0-.317,1.608V11a3.654,3.654,0,0,0,.329,1.583,2.326,2.326,0,0,0,.913,1.047,2.68,2.68,0,0,0,2.7,0A2.35,2.35,0,0,0,37.282,12.57ZM36.125,9.014a2.765,2.765,0,0,1,.39,1.583v.353a2.753,2.753,0,0,1-.39,1.6,1.218,1.218,0,0,1-1.1.548,1.291,1.291,0,0,1-1.121-.56,2.752,2.752,0,0,1-.4-1.583V10.6a2.7,2.7,0,0,1,.414-1.583,1.218,1.218,0,0,1,1.1-.548A1.279,1.279,0,0,1,36.125,9.014Zm5.408,2.667a.857.857,0,0,1,.061,1.23,1.315,1.315,0,0,1-.853.231,1.559,1.559,0,0,1-1.011-.292,1,1,0,0,1-.341-.816H38.305a1.718,1.718,0,0,0,.3,1.023,2.228,2.228,0,0,0,.889.694A3.179,3.179,0,0,0,40.717,14a2.606,2.606,0,0,0,1.62-.451,1.474,1.474,0,0,0,.6-1.218,1.716,1.716,0,0,0-.207-.84,1.887,1.887,0,0,0-.646-.633,4.871,4.871,0,0,0-1.218-.487,3.533,3.533,0,0,1-1.035-.451.658.658,0,0,1-.317-.572.767.767,0,0,1,.292-.633,1.328,1.328,0,0,1,.816-.219,1.279,1.279,0,0,1,.877.268,1,1,0,0,1,.3.767h1.072a1.815,1.815,0,0,0-.28-.974,1.925,1.925,0,0,0-.8-.682,2.558,2.558,0,0,0-1.157-.244,2.436,2.436,0,0,0-1.6.487,1.51,1.51,0,0,0-.609,1.218,1.583,1.583,0,0,0,.853,1.388,5.13,5.13,0,0,0,1.218.512A3.119,3.119,0,0,1,41.533,11.681Zm8.806,2.29h.11v-.037h.938a4.515,4.515,0,0,0,.816-.073c.268-.049.536-.11.792-.183a7.682,7.682,0,0,0,.743-.268l.658-.292a1.485,1.485,0,0,0,.585.609,1.8,1.8,0,0,0,.853.207h.5a.134.134,0,0,0,.089.012h1.59a.134.134,0,0,0,.054,0h.012a.159.159,0,0,0,.122,0h1.4v.11h.512a1.937,1.937,0,0,0,1.218-.365,1.633,1.633,0,0,0,.5.268,1.778,1.778,0,0,0,.658.1,1.6,1.6,0,0,0,.524-.1,1.8,1.8,0,0,0,.463-.28,1.29,1.29,0,0,0,.5.292,2.071,2.071,0,0,0,.646.085,1.472,1.472,0,0,0,.56-.1,1.327,1.327,0,0,0,.475-.28,1.3,1.3,0,0,0,.524.292,2.435,2.435,0,0,0,.706.085h.39v-.122h.658a1.41,1.41,0,0,0,.548-.1,1.548,1.548,0,0,0,.5-.28,1.682,1.682,0,0,0,.353-.5,1.828,1.828,0,0,0,.134-.706v-.67l-.073-.378a2.281,2.281,0,0,0,0-.329V10.6l-.779.378a1.285,1.285,0,0,1,0,.171.35.35,0,0,1,.061.244v.84a1.464,1.464,0,0,1,0,.219.826.826,0,0,1,0,.329.778.778,0,0,1-.158.183.573.573,0,0,1-.183.073H67.11v.037h-.231a.949.949,0,0,1-.548-.134.572.572,0,0,1-.183-.451V11.267h-.987v1.218a.792.792,0,0,1,0,.268.682.682,0,0,1-.122.183.353.353,0,0,1-.171.1.5.5,0,0,1-.195,0,.694.694,0,0,1-.548-.183.609.609,0,0,1-.158-.475V11.231h-.987v1.218a.706.706,0,0,1-.061.3.45.45,0,0,1-.134.183.378.378,0,0,1-.171.085H62.47a.719.719,0,0,1-.5-.158.621.621,0,0,1-.158-.463V11.255h-.987v1.218a1.5,1.5,0,0,1,0,.244.511.511,0,0,1-.11.195.816.816,0,0,1-.231.122,1.579,1.579,0,0,1-.378,0h-.256a.208.208,0,0,0-.122,0h0L58.024,13a.159.159,0,0,0-.122,0,.188.188,0,0,0-.007.033L56.562,13v-.053H55.552l-.171-.1a.682.682,0,0,1-.122-.183l.292-.195.134-.085-.134-.816h-.183l-.353-.134-.475-.171L54,11.072l-.56-.195-.524-.158-.426-.122-.317-.11a1.145,1.145,0,0,0-.475.085,1.133,1.133,0,0,0-.365.244,1.576,1.576,0,0,0-.268.365,2.914,2.914,0,0,0-.183.451l.913.28a.586.586,0,0,1,.1-.195.536.536,0,0,1,.1-.134.292.292,0,0,1,.134-.073h.158a.876.876,0,0,1,.231,0l.353.073.4.11.438.122.475.219.4.122a6.207,6.207,0,0,1-.682.3,5.346,5.346,0,0,1-.816.28,6.881,6.881,0,0,1-.865.207,4.188,4.188,0,0,1-.84.085h-.938v-.1h-.414a.864.864,0,0,1-.341-.11,1,1,0,0,1-.317-.244.889.889,0,0,1-.207-.414l-.731-2.826-.962.231.085.378a7.478,7.478,0,0,0-.719.3,3,3,0,0,0-.633.414,2.194,2.194,0,0,0-.426.572,1.681,1.681,0,0,0-.171.755,1.645,1.645,0,0,0,.134.67,1.46,1.46,0,0,0,.341.5,1.4,1.4,0,0,0,.5.317,1.621,1.621,0,0,0,.6.11h.365a1.705,1.705,0,0,0,.353-.11,1.464,1.464,0,0,0,.329-.195.973.973,0,0,0,.244-.256,1.586,1.586,0,0,0,.3.451,1.764,1.764,0,0,0,.438.3,2.439,2.439,0,0,0,.524.183A3.193,3.193,0,0,0,50.339,13.971Zm-2.326-2.2a.716.716,0,0,1,0,.231H48a.646.646,0,0,1-.231.414,1.216,1.216,0,0,1-.5.171.608.608,0,0,1-.256,0,.682.682,0,0,1-.231-.11.438.438,0,0,1-.171-.195.45.45,0,0,1-.073-.256.767.767,0,0,1,.329-.633,3.216,3.216,0,0,1,.962-.463.266.266,0,0,1,.053.179.212.212,0,0,0,.044.15.378.378,0,0,1,.085.28A1.5,1.5,0,0,1,48.012,11.766Zm3.374-2.874.706-.719.743.731-.731.719Zm16.308.1.719-.719L69.144,9l-.731.719Zm7.844,1.9-.67-.67.658-.694.682.694Zm1-.682.67.682.682-.682-.694-.682Zm14.518,3.763a4.625,4.625,0,0,1-.755,0,1.9,1.9,0,0,1-.524-.158.95.95,0,0,1-.341-.268,1.327,1.327,0,0,1-.207-.39,2.686,2.686,0,0,1-.085-.487V8.234h1V12a2.964,2.964,0,0,0,0,.512.536.536,0,0,0,.11.3.548.548,0,0,0,.28.134,2.985,2.985,0,0,0,.524,0v.085h1.717a.573.573,0,0,0,.183-.073,1.215,1.215,0,0,0,.158-.183.826.826,0,0,0,.061-.329,1.464,1.464,0,0,0,0-.219v-.268a2.439,2.439,0,0,0,0-.292v-.694L93.9,10.6a.353.353,0,0,1,0,.122v1.632a1.828,1.828,0,0,1-.134.706,1.681,1.681,0,0,1-.353.5,1.548,1.548,0,0,1-.5.28,1.448,1.448,0,0,1-.548.1H91.055Zm-.024,1.5.731.633.609-.633-.682-.682Zm2.4.633-.743-.633.658-.682.682.682Zm3.946-2.375a3.239,3.239,0,0,1-.207,1,2.253,2.253,0,0,1-.487.743,2.143,2.143,0,0,1-.767.475,2.888,2.888,0,0,1-1.011.171h-.487v-1H94.9a2.75,2.75,0,0,0,.67-.073.913.913,0,0,0,.451-.256,1.108,1.108,0,0,0,.268-.451,2.349,2.349,0,0,0,.049-.694V11.206h1Zm1.912.256h.3a3.816,3.816,0,0,0,.658-.11,1.814,1.814,0,0,0,.682-.268,1.034,1.034,0,0,0,.268-.244,1.217,1.217,0,0,0,.268-.913,1.656,1.656,0,0,0-.256-.633l-.56-.56-.317-.475-.207-.3-.122-.183v-.085l-.28-.414-.828.548,1.486,2.156a.619.619,0,0,1,.085.183.171.171,0,0,1,0,.134.4.4,0,0,1-.317.231,1.743,1.743,0,0,1-.572,0,4.1,4.1,0,0,1-.706-.122,6.973,6.973,0,0,1-.719-.207l-.28.95.475.146.329.1.317.073Z" transform="translate(52.805 1.473)" fill-rule="evenodd"/>
    <path id="Path_21044" data-name="Path 21044" d="M50.753,23.669h5.639a3.228,3.228,0,0,1,3.191,3.276H50.716a4.737,4.737,0,0,1-2.156-.524,4.872,4.872,0,0,1-7.783,1.571A4.871,4.871,0,0,1,37.5,29.272a4.7,4.7,0,0,1-2.071-.475,8.44,8.44,0,0,1-9.122,5.834A8.623,8.623,0,0,1,19,26v-5.98a3.215,3.215,0,0,1,3.264,3.167v2.826a5.335,5.335,0,0,0,4.665,5.383,5.188,5.188,0,0,0,5.7-5.152V19.93h3.228v4.385a1.681,1.681,0,0,0,3.362,0V19.93h3.228v4.421a1.681,1.681,0,1,0,3.349,0V19.93h3.276V22a1.669,1.669,0,0,0,1.681,1.669Z" transform="translate(51.032 4.235)"/>
    <path id="Path_21045" data-name="Path 21045" d="M81.419,32.715a3.228,3.228,0,0,1-2.278.941V24.4h3.228v6.041A3.227,3.227,0,0,1,81.419,32.715Z" transform="translate(66.393 5.209)"/>
    <path id="Path_21046" data-name="Path 21046" d="M54.631,34.555a3.228,3.228,0,0,0,3.228-3.215V19.94H54.631Z" transform="translate(60.347 4.237)"/>
    <path id="Path_21047" data-name="Path 21047" d="M77.154,23.133H74.718a1.011,1.011,0,0,0-.828.292,1.315,1.315,0,0,0,0,1.742,1.145,1.145,0,0,0,.8.329h5.59v.877a9.025,9.025,0,0,1-18.013-.646V19.942h3.313v5.724a5.724,5.724,0,0,0,5.8,5.627A5.822,5.822,0,0,0,76.253,28.6h-1.51a4.311,4.311,0,0,1-3.057-1.279A4.214,4.214,0,0,1,70.394,24.3a4.421,4.421,0,0,1,1.291-3.069,4.251,4.251,0,0,1,3-1.3h5.712a3.227,3.227,0,0,1-3.24,3.2Z" transform="translate(62.413 4.235)"/>
    <path id="Path_21048" data-name="Path 21048" d="M45.841,27.65a2.619,2.619,0,0,0,2.631,2.619h2.643v2.679a2.619,2.619,0,0,0,2.619-2.582V27.65Z" transform="translate(58.218 5.917)"/>
    <path id="Path_21049" data-name="Path 21049" d="M79.839,20.878A3.2,3.2,0,0,1,82.1,19.94v.073h6.443a3.2,3.2,0,0,1-3.2,3.13H78.9A3.2,3.2,0,0,1,79.839,20.878Z" transform="translate(66.427 4.237)"/>
    <g id="Group_10308" data-name="Group 10308" transform="translate(15.708 9.635)">
      <g transform="matrix(1, 0, 0, 1, -7.5, -7.5)" filter="url(#Path_21050)">
        <path id="Path_21050-2" data-name="Path 21050" d="M114.727,8H98.5A6.5,6.5,0,0,0,92,14.5V30.727a6.5,6.5,0,0,0,6.5,6.5h16.223a6.5,6.5,0,0,0,6.5-6.5V14.5A6.5,6.5,0,0,0,114.727,8Z" transform="translate(-84.5 -0.5)" fill="#fff"/>
      </g>
      <path id="Path_21051" data-name="Path 21051" d="M107.945,14.75a5.788,5.788,0,0,0,1.364-4.19,5.944,5.944,0,0,0-3.873,1.985,5.566,5.566,0,0,0-1.364,4.031,4.871,4.871,0,0,0,3.873-1.827Z" transform="translate(-89.372 -7.442)" fill="#1690ec"/>
      <path id="Path_21052" data-name="Path 21052" d="M108.808,18.787s-2.156,1.937-2.192,1.937-2.241-1.973-2.241-1.973a10.851,10.851,0,0,0-7.417-3.3H92V29.1a6.5,6.5,0,0,0,6.5,6.5h16.223a6.5,6.5,0,0,0,6.5-6.5V15.45h-4.994A10.815,10.815,0,0,0,108.808,18.787Z" transform="translate(-92 -6.376)" fill="#1690ec"/>
      <path id="Path_21053" data-name="Path 21053" d="M105.383,28.012A7.771,7.771,0,0,1,97.6,20.2a1.145,1.145,0,1,1,2.29,0,5.493,5.493,0,1,0,10.962,0,1.145,1.145,0,0,1,2.278,0,7.77,7.77,0,0,1-7.771,7.783Z" transform="translate(-90.78 -5.589)" fill="#fff"/>
    </g>
  </g>
</svg>
