<?xml version="1.0" encoding="UTF-8"?>
<svg id="Layer_2" data-name="Layer 2" xmlns="http://www.w3.org/2000/svg" viewBox="0 0 83 28.73">
  <defs>
    <style>
      .cls-1 {
        fill: #fff;
      }

      .cls-2 {
        fill: #dbc37b;
      }
    </style>
  </defs>
  <g id="Layer_2-2" data-name="Layer 2">
    <g id="Mobit_Per_Typo_Main" data-name="Mobit Per Typo Main">
      <g>
        <circle class="cls-2" cx="73.42" cy="9.58" r="9.58"/>
        <g id="Typo_Per" data-name="Typo Per">
          <path id="Main_Typo" data-name="Main Typo" class="cls-1" d="m83,9.37v-.37c0-.14-.02-.27-.03-.41-.02-.15-.04-.31-.06-.46-.01-.09-.03-.19-.05-.28-.01-.07-.03-.14-.04-.21s-.03-.13-.04-.19c0-.02,0-.04-.01-.06-.02-.07-.03-.14-.05-.2-.05-.21-.11-.41-.18-.61-.02-.05-.03-.11-.05-.16,0-.01,0-.02-.01-.03-.03-.09-.06-.18-.1-.26-.01-.04-.03-.07-.04-.11-.02-.05-.04-.11-.07-.16-.02-.05-.04-.1-.07-.16s-.05-.12-.08-.18c-.02-.05-.04-.09-.06-.14-.03-.05-.05-.11-.08-.16-.03-.05-.06-.11-.09-.16-.02-.05-.05-.09-.07-.13-.07-.13-.14-.25-.22-.37-.02-.04-.05-.08-.07-.12-.01-.02-.03-.04-.04-.07-.03-.05-.07-.1-.1-.16-.03-.04-.06-.08-.09-.13s-.06-.09-.1-.13l-.09-.12h0s-.08-.11-.13-.16c-.03-.05-.07-.09-.11-.14-.04-.05-.08-.1-.12-.14-.06-.07-.12-.14-.18-.21s-.12-.13-.18-.2c-.06-.07-.12-.13-.18-.19s-.13-.13-.19-.18c-.06-.06-.13-.12-.2-.18-.07-.06-.14-.12-.21-.18-.05-.04-.1-.08-.14-.12-.05-.04-.09-.07-.14-.11s-.11-.09-.16-.13h0s-.08-.06-.12-.09c-.04-.03-.09-.06-.13-.1-.04-.03-.08-.06-.13-.09-.05-.04-.1-.07-.16-.1-.02,0-.04-.03-.07-.04-.04-.02-.08-.05-.12-.07-.12-.08-.25-.15-.37-.22-.04-.03-.09-.05-.13-.07-.05-.03-.11-.06-.16-.09-.05-.03-.1-.05-.16-.08-.05-.02-.09-.04-.14-.06-.06-.03-.12-.06-.18-.08-.05-.02-.1-.05-.16-.07-.05-.02-.11-.04-.16-.07-.04,0-.07-.03-.11-.04-.09-.03-.18-.07-.26-.1-.01,0-.02,0-.03,0-.05-.02-.11-.04-.16-.05-.2-.07-.41-.13-.61-.18-.07-.02-.14-.03-.2-.05-.02,0-.04-.01-.06-.01-.07-.01-.13-.03-.19-.04-.07-.01-.14-.03-.21-.04-.09-.02-.18-.03-.28-.05-.15-.02-.3-.04-.46-.06-.14,0-.27-.02-.41-.03h-1.16c-.14,0-.27.02-.41.03-.15.02-.31.04-.46.06-.09,0-.19.03-.28.05-.07.01-.14.03-.21.04-.07.01-.13.03-.19.04-.02,0-.04,0-.06.01-.07.02-.14.03-.2.05-.21.05-.41.11-.61.18-.05.02-.11.03-.16.05-.01,0-.02,0-.03,0-.08.03-.16.06-.24.09-.05.02-.1.04-.15.06s-.1.04-.15.06-.11.05-.16.07c-.16.07-.31.14-.47.22-.07.03-.14.07-.2.11-.07.04-.13.07-.2.11,0,0-.01,0-.02,0-.09.05-.19.11-.28.17-.05.03-.09.06-.14.09-.05.03-.1.06-.14.1-.05.03-.09.06-.13.09-.04.03-.07.05-.11.08-.05.04-.11.08-.16.12-.04.03-.09.07-.13.1-.05.04-.1.08-.15.12-.06.05-.12.09-.17.14-.05.05-.11.09-.16.14-.01,0-.02.02-.03.03-.07.06-.13.12-.2.18-.07.06-.13.12-.19.18s-.13.13-.18.19c-.06.06-.12.13-.18.2,0,0-.01.02-.02.03-.05.05-.09.1-.14.16-.05.06-.1.12-.15.18-.04.05-.08.11-.13.16-.1.12-.19.25-.28.38-.03.04-.06.09-.09.13-.03.05-.07.1-.1.15-.03.04-.05.09-.08.13s-.05.08-.08.13c-.03.06-.07.11-.1.17-.22.39-.42.79-.59,1.21-.02.05-.04.1-.06.15-.03.07-.06.15-.08.22,0,.01,0,.02-.01.03-.02.05-.04.11-.05.16-.07.2-.13.41-.18.61-.02.07-.03.14-.05.2,0,.02-.01.04-.01.06-.01.07-.03.13-.04.19-.01.07-.03.14-.04.21-.02.09-.03.18-.05.28-.02.15-.04.3-.06.46,0,.14-.02.27-.03.41v6.96h-.44s-.09,0-.14-.01c-.1,0-.2-.02-.3-.03-.06,0-.13-.02-.19-.03-.07-.01-.14-.02-.21-.04-.08-.02-.17-.04-.25-.06-.05-.01-.1-.02-.14-.04-.41-.11-.8-.26-1.18-.45-.06-.03-.11-.06-.17-.09-.06-.03-.11-.06-.16-.09h0c-.17-.1-.34-.21-.5-.32-.04-.03-.08-.06-.12-.09-.12-.09-.24-.19-.36-.29-.03-.03-.07-.06-.1-.09,0,0,0-.01-.02-.02-.03-.03-.07-.06-.1-.09-.08-.07-.15-.15-.23-.23-.03-.03-.06-.07-.09-.1,0,0,0-.01-.02-.02-.03-.03-.06-.07-.09-.1-.1-.12-.2-.23-.29-.36-.03-.04-.06-.08-.09-.12-.12-.16-.22-.33-.32-.5h0c-.03-.06-.06-.12-.09-.17s-.06-.11-.09-.17c-.19-.37-.34-.77-.45-1.18,0-.05-.03-.1-.04-.14-.02-.08-.04-.17-.06-.25,0-.07-.03-.14-.04-.21,0-.06-.02-.13-.03-.19,0-.1-.03-.2-.03-.3,0-.05,0-.09,0-.14V0h-3.19v10.02c0,.05,0,.09,0,.14,0,.1-.02.2-.03.3,0,.06-.02.13-.03.19,0,.07-.02.14-.04.21-.02.08-.04.17-.06.25,0,.05-.02.1-.04.14-.11.41-.26.8-.45,1.18-.03.06-.06.11-.09.17s-.06.11-.09.16h0c-.1.18-.21.35-.32.51-.03.04-.06.08-.09.12-.09.12-.19.24-.29.36-.03.03-.06.07-.09.1,0,0,0,.01-.02.02-.03.03-.06.07-.09.1-.07.08-.15.15-.23.23-.03.03-.07.06-.1.09,0,0,0,.01-.02.02-.03.03-.07.06-.1.09-.12.1-.23.2-.36.29-.04.03-.08.06-.12.09-.16.12-.33.22-.5.32h0s-.11.06-.16.09-.11.06-.17.09c-.37.19-.77.34-1.18.45-.05.01-.1.03-.14.04-.08.02-.17.04-.25.06-.07.01-.14.03-.21.04-.06.01-.13.02-.19.03-.1.01-.2.03-.3.03-.05,0-.09,0-.14.01h-3.63V0h-3.19v10.02c0,.05,0,.09,0,.14,0,.1-.02.2-.03.3,0,.06-.02.13-.03.19,0,.07-.02.14-.04.21-.02.08-.04.17-.06.25,0,.05-.02.1-.04.14-.11.41-.26.8-.45,1.18-.03.06-.06.11-.09.17s-.06.11-.09.16h0c-.15.28-.33.53-.52.77-.04.05-.08.1-.12.15-.16.19-.32.36-.5.53-.22.21-.45.4-.69.57-.04.03-.08.06-.13.09-.04.03-.08.05-.12.08,0,0,0,0-.02.01-.04.03-.08.05-.12.07-.04.02-.08.05-.12.07h0s-.11.06-.16.09-.11.06-.17.09c-.37.19-.77.34-1.18.45-.05.01-.1.03-.14.04-.08.02-.17.04-.25.06-.07.01-.14.03-.21.04-.06.01-.13.02-.19.03-.1.01-.2.03-.3.03-.05,0-.09,0-.14.01h-3.63V0h-3.19v10.02c0,.05,0,.09-.01.14,0,.1-.02.2-.03.3,0,.06-.02.13-.03.19-.01.07-.02.14-.04.21-.02.08-.04.17-.06.25-.01.05-.02.1-.04.14-.11.41-.26.8-.45,1.18-.03.06-.06.11-.09.17s-.06.11-.09.16h0c-.15.28-.33.53-.52.77-.04.05-.08.1-.12.15-.16.19-.32.36-.5.53-.22.21-.45.4-.69.57-.04.03-.08.06-.13.09-.04.03-.08.05-.12.08,0,0-.01,0-.02.01-.04.03-.08.05-.12.07-.04.02-.08.05-.12.07h-.01s-.11.06-.16.09-.11.06-.17.09c-.37.19-.77.34-1.18.45-.05.01-.1.03-.14.04-.08.02-.17.04-.25.06-.07.01-.14.03-.21.04-.06.01-.13.02-.19.03-.1.01-.2.03-.3.03-.05,0-.09,0-.14.01h-13.65c-.05,0-.09,0-.14-.01-.1,0-.2-.02-.3-.03-.06,0-.13-.02-.19-.03-.07-.01-.14-.02-.21-.04-.08-.02-.17-.04-.25-.06-.05-.01-.1-.02-.14-.04-.41-.11-.8-.26-1.18-.45-.06-.03-.11-.06-.17-.09s-.11-.06-.16-.09h-.01c-.17-.1-.34-.21-.5-.32-.04-.03-.08-.06-.12-.09-.12-.09-.24-.19-.36-.29-.03-.03-.07-.06-.1-.09,0,0-.01-.01-.02-.02-.03-.03-.07-.06-.1-.09-.08-.07-.15-.15-.23-.23-.03-.03-.06-.07-.09-.1,0,0-.01-.01-.02-.02-.03-.03-.06-.07-.09-.1-.1-.12-.2-.23-.29-.36-.03-.04-.06-.08-.09-.12-.12-.16-.22-.33-.32-.5h0c-.03-.06-.06-.12-.09-.17s-.06-.11-.09-.17c-.19-.37-.34-.77-.45-1.18,0-.05-.03-.1-.04-.14-.02-.08-.04-.17-.06-.25,0-.07-.03-.14-.04-.21,0-.06-.02-.13-.03-.19,0-.1-.03-.2-.03-.3,0-.05,0-.09,0-.14V0H0v10.16c0,.14.02.27.03.41.02.15.04.31.06.46,0,.09.03.19.05.28.01.07.03.14.04.21s.03.13.04.19c0,.02,0,.04.01.06.02.07.03.14.05.2.05.21.11.41.18.61.02.05.03.11.05.16,0,.01,0,.02,0,.03.03.09.06.18.1.26,0,.04.03.07.04.11.02.05.04.11.07.16.02.05.04.1.07.16.03.06.05.12.08.18.02.05.04.09.06.14.03.05.05.11.08.16s.06.11.09.16c.02.05.05.09.07.13.11.19.22.37.33.55.03.05.07.1.1.16.03.04.06.08.09.13.03.05.06.09.1.13.03.04.06.08.09.12h0c.04.05.08.11.13.16.04.05.07.09.11.14s.08.1.12.14c.06.07.12.14.18.21.06.07.12.13.18.2.06.07.12.13.18.19.06.06.13.13.19.18.06.06.13.12.2.18.07.06.14.12.21.18.05.04.1.08.14.12.05.04.09.07.14.11.05.04.11.09.16.13h0s.08.06.12.09.09.06.13.1c.04.03.08.06.13.09.05.04.1.07.16.1.18.12.37.23.55.33.04.03.09.05.13.07.05.03.11.06.16.09.05.03.1.05.16.08.05.02.09.04.14.06.06.03.12.06.18.08.05.02.1.05.16.07.05.02.11.04.16.07.04.01.07.03.11.04.09.03.18.07.26.1.01,0,.02,0,.03.01.05.02.11.04.16.05.2.07.41.13.61.18.07.02.14.03.2.05.02,0,.04.01.06.01.07.01.13.03.19.04.07.01.14.03.21.04.09.02.18.03.28.05.15.02.3.04.46.06.14.01.27.02.41.03h13.93c.14,0,.27-.02.41-.03.15-.02.31-.04.46-.06.09-.01.19-.03.28-.05.07-.01.14-.03.21-.04s.13-.03.19-.04c.02,0,.04,0,.06-.01.07-.02.14-.03.2-.05.21-.05.41-.11.61-.18.05-.02.11-.03.16-.05.01,0,.02,0,.03-.01.09-.03.18-.06.26-.1.04-.01.07-.03.11-.04.05-.02.11-.04.16-.07.05-.02.1-.04.16-.07.06-.03.12-.05.18-.08.05-.02.09-.04.14-.06.05-.03.11-.05.16-.08s.11-.06.16-.09c.05-.02.09-.05.13-.07.19-.11.37-.22.55-.33.05-.03.1-.07.16-.1.04-.03.08-.06.13-.09s.09-.06.13-.1c.04-.03.08-.06.12-.09h0s.11-.08.16-.13c.05-.04.09-.07.14-.11s.1-.08.14-.12c.07-.06.14-.12.21-.18v2.44h6.96c.14,0,.27-.02.41-.03.15-.02.31-.04.46-.06.09-.01.19-.03.28-.05.07-.01.14-.03.21-.04s.13-.03.19-.04c.02,0,.04,0,.06-.01.07-.02.14-.03.2-.05.21-.05.41-.11.61-.18.05-.02.11-.03.16-.05,0,0,.02,0,.03-.01.09-.03.18-.06.26-.1.04-.01.07-.03.11-.04.05-.02.11-.04.16-.07.05-.02.1-.04.16-.07.06-.03.12-.05.18-.08.05-.02.09-.04.14-.06.05-.03.11-.05.16-.08s.11-.06.16-.09c.05-.02.09-.05.13-.07.19-.11.37-.22.55-.33.05-.03.1-.07.16-.1.04-.03.08-.06.13-.09s.09-.06.13-.1c.04-.03.08-.06.12-.09h0s.11-.08.16-.13c.05-.04.09-.07.14-.11s.1-.08.14-.12c.07-.06.14-.12.21-.18v2.44h6.96c.14,0,.27-.02.41-.03.15-.02.31-.04.46-.06.09-.01.19-.03.28-.05.07-.01.14-.03.21-.04s.13-.03.19-.04c.02,0,.04,0,.06-.01.07-.02.14-.03.2-.05.21-.05.41-.11.61-.18.05-.02.11-.03.16-.05,0,0,.02,0,.03-.01.09-.03.18-.06.26-.1.04-.01.07-.03.11-.04.05-.02.11-.04.16-.07.05-.02.1-.04.16-.07.06-.03.12-.05.18-.08.05-.02.09-.04.14-.06.05-.03.11-.05.16-.08s.11-.06.16-.09c.05-.02.09-.05.13-.07.19-.11.37-.22.55-.33.05-.03.1-.07.16-.1.04-.03.08-.06.13-.09s.09-.06.13-.1c.04-.03.08-.06.12-.09h0s.11-.08.16-.13c.05-.04.09-.07.14-.11s.1-.08.14-.12c.07-.06.14-.12.21-.18s.13-.12.2-.18.13-.12.19-.18c.06-.06.13-.13.18-.19.06-.06.12-.13.18-.2,0,0,0-.02.02-.03.06-.07.12-.14.18-.21.07-.08.14-.17.21-.26.03-.03.05-.07.08-.1.05-.06.1-.13.14-.19,0,0,0-.01.02-.02.07-.09.13-.19.19-.28.06.09.13.19.19.28,0,0,0,.01.02.02.05.07.09.13.14.19.03.03.05.07.08.1.07.09.13.17.21.26.06.07.12.14.18.21,0,0,0,.02.02.03.06.07.12.13.18.2s.12.13.18.19c.06.06.13.13.19.18.06.06.13.12.2.18s.14.12.21.18c.05.04.1.08.14.12.05.04.09.07.14.11s.11.09.16.13h0s.08.06.12.09c.04.03.09.06.13.1.04.03.08.06.13.09.05.04.1.07.16.1.18.12.37.23.55.33.04.03.09.05.13.07.05.03.11.06.16.09s.1.05.16.08c.05.02.09.04.14.06.06.03.12.06.18.08.05.02.1.05.16.07.05.02.11.04.16.07.04.01.07.03.11.04.09.03.18.07.26.1,0,0,.02,0,.03.01.05.02.11.04.16.05.2.07.41.13.61.18.07.02.14.03.2.05.02,0,.04.01.06.01.07.01.13.03.19.04.07.01.14.03.21.04.09.02.18.03.28.05.15.02.3.04.46.06.14.01.27.02.41.03h10.74c.14,0,.27-.02.41-.03.15-.02.31-.04.46-.06.09-.01.19-.03.28-.05.07-.01.14-.03.21-.04s.13-.03.19-.04c.02,0,.04,0,.06-.01.07-.02.14-.03.2-.05.21-.05.41-.11.61-.18.05-.02.11-.03.16-.05.01,0,.02,0,.03-.01.09-.03.18-.06.26-.1.04-.01.07-.03.11-.04.05-.02.11-.04.16-.07.05-.02.1-.04.16-.07.06-.03.12-.05.18-.08.05-.02.09-.04.14-.06.05-.03.11-.05.16-.08s.11-.06.16-.09c.05-.02.09-.05.13-.07.19-.11.37-.22.55-.33.05-.03.1-.07.16-.1.04-.03.08-.06.13-.09.05-.03.09-.06.13-.1.04-.03.08-.06.12-.09h0c.05-.04.11-.08.16-.13.05-.04.09-.07.14-.11s.1-.08.14-.12c.07-.06.14-.12.21-.18s.13-.12.2-.18.13-.12.19-.18c.06-.06.13-.13.18-.19.06-.06.12-.13.18-.2.06-.07.12-.14.18-.21.04-.05.08-.1.12-.14.04-.05.07-.09.11-.14s.09-.11.13-.16h0l.09-.12s.06-.09.1-.13c.03-.04.06-.08.09-.13.04-.05.07-.1.1-.16.12-.18.23-.37.33-.55.03-.04.05-.09.07-.13.03-.05.06-.11.09-.16s.05-.1.08-.16c.02-.05.04-.09.06-.14.03-.06.06-.12.08-.18.02-.05.05-.1.07-.16.02-.05.04-.11.07-.16.01-.04.03-.07.04-.11.03-.09.07-.18.1-.26,0-.01,0-.02.01-.03.02-.05.04-.11.05-.16.07-.2.13-.41.18-.61.02-.07.03-.14.05-.2,0-.02.01-.04.01-.06.01-.07.03-.13.04-.19.01-.07.03-.14.04-.21.02-.09.03-.18.05-.28.02-.15.04-.3.06-.46.01-.14.02-.27.03-.41v-.81Zm-15.95,6.59v-6.82c0-.05,0-.09.01-.14,0-.1.02-.2.03-.3,0-.06.02-.13.03-.19.01-.07.02-.14.04-.21.02-.08.04-.17.06-.25.01-.05.02-.1.04-.14.11-.41.26-.8.45-1.18.03-.06.06-.11.09-.17s.06-.11.09-.16h0c.13-.24.28-.46.44-.67.03-.04.06-.08.1-.12.07-.08.13-.16.2-.24h0c.11-.13.23-.25.35-.37.06-.06.12-.11.18-.16.07-.07.15-.13.23-.2.04-.03.09-.07.13-.1.02-.02.05-.04.07-.06.05-.04.09-.07.14-.1l.09-.06c.07-.05.14-.1.22-.14.06-.04.12-.07.18-.11.08-.05.17-.1.26-.14.03-.02.07-.03.1-.05.1-.05.2-.09.3-.14.04-.02.07-.03.11-.05.05-.02.11-.04.16-.07.05-.02.09-.03.14-.05.08-.03.15-.05.23-.08.11-.03.23-.07.34-.1.04,0,.08-.02.11-.03.06,0,.12-.03.18-.04.04,0,.09-.02.13-.02.27-.05.54-.08.81-.09h.75c.05,0,.09,0,.14,0,.1,0,.2.02.3.03.06,0,.13.02.19.03.07,0,.14.02.21.04.08.02.17.04.25.06.05,0,.1.02.14.04.41.11.8.26,1.18.45.06.03.11.06.17.09s.11.06.16.09h.01c.17.1.34.21.5.32.04.03.08.06.12.09.12.09.24.19.36.29.03.03.07.06.1.09,0,0,.01.01.02.02.03.03.07.06.1.09.08.07.15.15.23.23.03.03.06.07.09.1,0,0,.01.01.02.02.03.03.06.07.09.1.1.12.2.23.29.36l.09.12c.12.16.22.33.32.5h0c.03.06.06.12.09.17.03.05.06.11.09.17.19.37.34.77.45,1.18.01.05.03.1.04.14.02.08.04.17.06.25.01.07.03.14.04.21.01.06.02.13.03.19.01.1.03.2.03.3,0,.05,0,.09.01.14v.88c0,.05,0,.09-.01.14,0,.1-.02.2-.03.3,0,.06-.02.13-.03.19-.01.07-.02.14-.04.21-.02.08-.04.17-.06.25-.01.05-.02.1-.04.14-.11.41-.26.8-.45,1.18-.03.06-.06.11-.09.17s-.06.11-.09.16h0c-.1.18-.21.35-.32.51l-.09.12c-.09.12-.19.24-.29.36-.03.03-.06.07-.09.1,0,0-.01.01-.02.02-.03.03-.06.07-.09.1-.07.08-.15.15-.23.23-.03.03-.07.06-.1.09,0,0-.01.01-.02.02-.03.03-.07.06-.1.09-.12.1-.23.2-.36.29-.04.03-.08.06-.12.09-.16.12-.33.22-.5.32h-.01c-.05.03-.11.06-.16.09s-.11.06-.17.09c-.37.19-.77.34-1.18.45-.05.01-.1.03-.14.04-.08.02-.17.04-.25.06-.07.01-.14.03-.21.04-.06.01-.13.02-.19.03-.1.01-.2.03-.3.03-.05,0-.09,0-.14.01h-6.82l.03.03Z"/>
          <rect class="cls-1" x="7.98" width="9.58" height="3.19"/>
          <rect class="cls-1" x="28.73" y="25.54" width="9.58" height="3.19"/>
          <rect class="cls-1" x="47.88" y="25.54" width="3.19" height="3.19"/>
        </g>
      </g>
    </g>
  </g>
</svg>