<svg xmlns="http://www.w3.org/2000/svg" width="72" height="72" viewBox="0 0 72 72">
  <g id="Group_9792" data-name="Group 9792" transform="translate(0.271 0.051)">
    <rect id="Rectangle_1537" data-name="Rectangle 1537" width="72" height="72" rx="20" transform="translate(-0.271 -0.051)" fill="none"/>
    <g id="_007-imac-5" data-name="007-imac-5" transform="translate(2.559 17.34)">
      <path id="Path_20501" data-name="Path 20501" d="M176.667,420.107a2.165,2.165,0,0,1-.8,1.457l-.726.492h11.977l-.726-.492a2.164,2.164,0,0,1-.8-1.457l-.352-3.058h-8.23Z" transform="translate(-147.965 -386.161)" fill="#ccc"/>
      <path id="Path_20502" data-name="Path 20502" d="M178.97,420.444l.352-3.394h-2.3l-.352,3.058a2.165,2.165,0,0,1-.8,1.457l-.726.492h3.033A2.488,2.488,0,0,0,178.97,420.444Z" transform="translate(-147.965 -386.161)" fill="#bababa"/>
      <path id="Path_20503" data-name="Path 20503" d="M48.836,0H17.5a2.164,2.164,0,0,0-2.158,2.158V28.883A2.164,2.164,0,0,0,17.5,31.041H48.836a2.164,2.164,0,0,0,2.158-2.158V2.158A2.164,2.164,0,0,0,48.836,0Z" fill="#efefef"/>
      <path id="Path_20504" data-name="Path 20504" d="M17.527,28.883V2.158A2.164,2.164,0,0,1,19.685,0H17.5a2.164,2.164,0,0,0-2.158,2.158V28.883A2.164,2.164,0,0,0,17.5,31.041h2.181A2.164,2.164,0,0,1,17.527,28.883Z" fill="#ddd"/>
      <path id="Path_20505" data-name="Path 20505" d="M75.714,29.242H45.165a.368.368,0,0,0-.368.368V48.455a.368.368,0,0,0,.368.368H75.714a.368.368,0,0,0,.368-.368V29.61A.368.368,0,0,0,75.714,29.242Z" transform="translate(-27.27 -27.076)" fill="#377dff"/>
      <path id="Path_20506" data-name="Path 20506" d="M47.075,48.455V29.61a.368.368,0,0,1,.368-.368H45.165a.368.368,0,0,0-.368.368V48.455a.368.368,0,0,0,.368.368h2.278A.368.368,0,0,1,47.075,48.455Z" transform="translate(-27.27 -27.076)" fill="#82acfb"/>
      <path id="Path_20507" data-name="Path 20507" d="M161.188,482.6h-14.12a1.092,1.092,0,0,0-1.089,1.089h0a1.092,1.092,0,0,0,1.089,1.089h14.12a1.092,1.092,0,0,0,1.089-1.089h0A1.092,1.092,0,0,0,161.188,482.6Z" transform="translate(-120.959 -446.854)" fill="#efefef"/>
      <path id="Path_20508" data-name="Path 20508" d="M150.226,483.686h0a1.092,1.092,0,0,1,1.089-1.089h-4.248a1.092,1.092,0,0,0-1.089,1.089h0a1.092,1.092,0,0,0,1.089,1.089h4.248A1.092,1.092,0,0,1,150.226,483.686Z" transform="translate(-120.957 -446.854)" fill="#ddd"/>
      <path id="Path_20509" data-name="Path 20509" d="M44.795,29.611v1.8H76.08v-1.8a.368.368,0,0,0-.368-.368H45.163A.368.368,0,0,0,44.795,29.611Z" transform="translate(-27.268 -27.077)" fill="#5d96ff"/>
      <path id="Path_20510" data-name="Path 20510" d="M44.795,29.6v1.8h2.278V29.6a.368.368,0,0,1,.368-.368,14.366,14.366,0,0,0-2.422.029A.368.368,0,0,0,44.795,29.6Z" transform="translate(-27.268 -27.062)" fill="#74a1f3"/>
      <circle id="Ellipse_593" data-name="Ellipse 593" cx="1.336" cy="1.336" r="1.336" transform="translate(31.834 25.16)" fill="#ccc"/>
      <path id="Path_20511" data-name="Path 20511" d="M239.273,339.729a1.335,1.335,0,1,0,1.156,2A1.335,1.335,0,0,1,239.273,339.729Z" transform="translate(-206.102 -314.567)" fill="#bababa"/>
      <path id="Path_20512" data-name="Path 20512" d="M123.466,245.283h-1.532a.256.256,0,0,1-.255-.255V243.5a.256.256,0,0,1,.255-.255h1.532a.256.256,0,0,1,.255.255v1.532A.256.256,0,0,1,123.466,245.283Z" transform="translate(-98.458 -225.225)" fill="#fff" opacity="0.1"/>
      <path id="Path_20513" data-name="Path 20513" d="M219.891,245.283h-1.532a.256.256,0,0,1-.255-.255V243.5a.256.256,0,0,1,.255-.255h1.532a.256.256,0,0,1,.255.255v1.532A.256.256,0,0,1,219.891,245.283Z" transform="translate(-187.741 -225.225)" fill="#fff" opacity="0.2"/>
      <path id="Path_20514" data-name="Path 20514" d="M316.316,245.283h-1.532a.256.256,0,0,1-.255-.255V243.5a.256.256,0,0,1,.255-.255h1.532a.256.256,0,0,1,.255.255v1.532A.256.256,0,0,1,316.316,245.283Z" transform="translate(-277.024 -225.225)" fill="#fff" opacity="0.1"/>
      <path id="Path_20515" data-name="Path 20515" d="M171.678,245.283h-1.532a.256.256,0,0,1-.255-.255V243.5a.256.256,0,0,1,.255-.255h1.532a.256.256,0,0,1,.255.255v1.532A.256.256,0,0,1,171.678,245.283Z" transform="translate(-143.099 -225.225)" fill="#fff" opacity="0.6"/>
      <path id="Path_20516" data-name="Path 20516" d="M268.1,245.283h-1.532a.256.256,0,0,1-.255-.255V243.5a.256.256,0,0,1,.255-.255H268.1a.256.256,0,0,1,.255.255v1.532A.256.256,0,0,1,268.1,245.283Z" transform="translate(-232.382 -225.225)" fill="#fff" opacity="0.4"/>
      <path id="Path_20517" data-name="Path 20517" d="M364.529,245.283H363a.256.256,0,0,1-.255-.255V243.5a.256.256,0,0,1,.255-.255h1.532a.256.256,0,0,1,.255.255v1.532A.256.256,0,0,1,364.529,245.283Z" transform="translate(-321.666 -225.225)" fill="#fff" opacity="0.3"/>
    </g>
  </g>
</svg>
