<?xml version="1.0" encoding="UTF-8"?>
<svg id="Layer_1" data-name="Layer 1" xmlns="http://www.w3.org/2000/svg" xmlns:xlink="http://www.w3.org/1999/xlink" viewBox="0 0 52 52">
  <defs>
    <clipPath id="clippath">
      <rect width="52" height="52" style="fill: none;"/>
    </clipPath>
  </defs>
  <g id="a1">
    <g id="Group_2" data-name="Group 2">
      <g style="clip-path: url(#clippath);">
        <g id="Group_1" data-name="Group 1">
          <path id="Path_1" data-name="Path 1" d="M35.3,38.3v-.8h3.3v.8c0,.4-.3,.7-.7,.7h-2c-.4,0-.7-.3-.7-.7" style="fill: #377dff;"/>
          <path id="Path_2" data-name="Path 2" d="M36.9,38.3v-.8h-1.6v.8c0,.4,.3,.7,.7,.7h1.6c-.4,0-.7-.3-.7-.7" style="fill: #2164de;"/>
          <path id="Path_3" data-name="Path 3" d="M13.4,38.3v-.8h3.3v.8c0,.4-.3,.7-.7,.7h-2c-.4,0-.7-.3-.7-.7" style="fill: #bebebe;"/>
          <path id="Path_4" data-name="Path 4" d="M15,38.3v-.8h-1.6v.8c0,.4,.3,.7,.7,.7h1.6c-.4,0-.7-.3-.7-.7" style="fill: #9c9c9c;"/>
          <path id="Path_5" data-name="Path 5" d="M36.5,14.6c-1-1-2.3-1.6-3.8-1.6-2.2,0-4.2,1.2-5.3,3.1v4.1c1.1,1.9,3.1,3.1,5.3,3.1,.8,0,1.6-.2,2.2-.6v14.5c0,.2,.2,.4,.4,.4h3.3c.2,0,.4-.2,.4-.4h0v-15.8s0-4.5-2.6-6.8" style="fill: #377dff;"/>
          <path id="Path_6" data-name="Path 6" d="M24.6,16.1c-1.1-1.9-3.1-3.1-5.3-3.1-1.4,0-2.8,.6-3.8,1.5-2.6,2.3-2.6,6.8-2.6,6.8v15.8c0,.2,.2,.4,.4,.4h3.3c.2,0,.4-.2,.4-.4v-14.5c.7,.4,1.5,.6,2.2,.6,2.2,0,4.2-1.2,5.3-3.1v-4.1Z" style="fill: #efefef;"/>
          <path id="Path_7" data-name="Path 7" d="M14.6,37.2v-15.8s0-4.5,2.6-6.8c.8-.8,1.9-1.3,3-1.5-1.7-.3-3.4,.3-4.6,1.5-2.6,2.3-2.6,6.8-2.6,6.8v15.8c0,.2,.2,.4,.4,.4h1.6c-.2,0-.4-.2-.4-.4h0" style="fill: #ddd;"/>
          <path id="Path_8" data-name="Path 8" d="M24.6,16.1c-.3-.3-.7-.4-1-.1-.2,.1-.3,.4-.3,.6v3.1c0,.4,.3,.8,.7,.8,.2,0,.5,0,.6-.3h0" style="fill: #efefef;"/>
          <path id="Path_9" data-name="Path 9" d="M35,22.7c0-.7-.3-1.4-.9-1.9-.2,0-.4,0-.5,.2,0,.2,0,.4,.1,.5,.6,.3,.5,1.6,.5,1.6,.3,0,.5-.2,.8-.4" style="fill: #377dff;"/>
          <path id="Path_10" data-name="Path 10" d="M36.5,17.6c-.3-.7-.7-1.3-1.3-1.8-.1-.1-.3-.3-.5-.4-.2-.1-.2-.4,0-.6,.1-.2,.4-.2,.5,0h0c.9,.6,1.5,1.5,2,2.4,0,.2,0,.4-.2,.5s-.4,0-.5-.2h0Z" style="fill: #efefef;"/>
          <path id="Path_11" data-name="Path 11" d="M30.9,17.4c.4,0,.7,.3,.7,.7s-.3,.7-.7,.7-.7-.3-.7-.7,.3-.7,.7-.7h0" style="fill: #efefef;"/>
          <path id="Path_12" data-name="Path 12" d="M37.2,21.2c0-.2,0-.4,.3-.5s.4,0,.5,.3,0,.4-.3,.5c-.2,0-.3,0-.4-.2,0,0,0,0,0-.1" style="fill: #efefef;"/>
          <path id="Path_13" data-name="Path 13" d="M24,20.5c.4,0,.7-.3,.7-.7h0v-3.2c0-.4-.3-.7-.7-.7s-.7,.3-.7,.7v3.2c0,.4,.3,.7,.7,.7h0" style="fill: #777;"/>
          <path id="Path_14" data-name="Path 14" d="M24,18.5c-.4,0-.7-.3-.7-.7h0s0,2,0,2c0,.4,.3,.7,.7,.7s.7-.3,.7-.7h0v-2c0,.4-.3,.7-.7,.7h0" style="fill: #535454;"/>
          <path id="Path_15" data-name="Path 15" d="M17.9,20.8c-.6,.5-.9,1.2-.9,1.9,.3,.1,.5,.3,.8,.4v-.4c0-.2,0-1,.5-1.2,.2-.1,.3-.3,.1-.5s-.3-.3-.5-.1" style="fill: #bebebe;"/>
          <path id="Path_16" data-name="Path 16" d="M15,17.8c-.2,0-.3-.3-.2-.5,0,0,0,0,0,0h0c.4-1,1.1-1.8,2-2.4,.2-.1,.4-.1,.6,0s.1,.4,0,.6c0,0,0,0,0,0-.2,.1-.3,.2-.5,.4-.5,.5-1,1.1-1.3,1.8-.1,.2-.3,.3-.5,.2" style="fill: #777;"/>
          <path id="Path_17" data-name="Path 17" d="M21.1,17.4c.4,0,.7,.3,.7,.7s-.3,.7-.7,.7-.7-.3-.7-.7,.3-.7,.7-.7h0" style="fill: #777;"/>
          <path id="Path_18" data-name="Path 18" d="M14.1,21.1c0-.2,.2-.4,.4-.4,.2,0,.4,.2,.4,.4,0,0,0,0,0,0,0,.1,0,.2-.1,.3-.2,.2-.7,0-.7-.3" style="fill: #777;"/>
          <path id="Path_19" data-name="Path 19" d="M15.7,36.6h-1.4c-.2,0-.4-.2-.4-.4s.2-.4,.4-.4h1.4c.2,0,.4,.2,.4,.4s-.2,.4-.4,.4" style="fill: #bebebe;"/>
          <path id="Path_20" data-name="Path 20" d="M33.5,13.1c-.3,0-.5,0-.8,0-2.2,0-4.2,1.2-5.3,3.1v4.1c1.1,1.9,3.1,3.1,5.3,3.1,.3,0,.5,0,.8,0-2.5-.4-4.3-2.5-4.3-5h0c0-2.6,1.8-4.7,4.3-5.1" style="fill: #2164de;"/>
          <path id="Path_21" data-name="Path 21" d="M36.5,37.2v-14.5c0-2.2-2.5-1.9-2.5-1.9,.6,.4,.9,1.2,.9,1.9v14.5c0,.2,.2,.4,.4,.4h1.6c-.2,0-.4-.2-.4-.4" style="fill: #2164de;"/>
          <path id="Path_22" data-name="Path 22" d="M28,20.5c-.4,0-.7-.3-.7-.7h0v-3.2c0-.4,.3-.7,.7-.7s.7,.3,.7,.7v3.2c0,.4-.3,.7-.7,.7h0Z" style="fill: #bebebe;"/>
          <path id="Path_23" data-name="Path 23" d="M28,18.5c-.4,0-.7-.3-.7-.7h0s0,2,0,2c0,.4,.3,.7,.7,.7s.7-.3,.7-.7h0v-2c0,.4-.3,.7-.7,.7h0Z" style="fill: #777;"/>
          <path id="Path_24" data-name="Path 24" d="M37.7,36.6h-1.4c-.2,0-.4-.2-.4-.4s.2-.4,.4-.4h1.4c.2,0,.4,.2,.4,.4s-.2,.4-.4,.4" style="fill: #efefef;"/>
        </g>
      </g>
    </g>
  </g>
</svg>