<svg xmlns="http://www.w3.org/2000/svg" width="72" height="72" viewBox="0 0 72 72">
  <g id="Group_9735" data-name="Group 9735" transform="translate(0.271 0.051)">
    <rect id="Rectangle_1537" data-name="Rectangle 1537" width="72" height="72" rx="20" transform="translate(-0.271 -0.051)" fill="none"/>
    <g id="_003-macbook-pro" data-name="003-macbook-pro" transform="translate(15.631 7.553)">
      <path id="Path_20400" data-name="Path 20400" d="M69.352,195.4c-.142-.029-32.854-.037-33.032,0a1,1,0,0,0-.792.971v22.114a.994.994,0,0,0,.991.991c34.885,0,32.68.011,32.833-.02a1,1,0,0,0,.792-.971V196.372A1,1,0,0,0,69.352,195.4Z" transform="translate(-32.739 -171.203)" fill="#efefef"/>
      <path id="Path_20401" data-name="Path 20401" d="M37.66,218.531V196.417a.994.994,0,0,1,.991-.991,21.7,21.7,0,0,0-2.331.02,1,1,0,0,0-.792.971v22.114a.994.994,0,0,0,.991.991h2.132a.992.992,0,0,1-.991-.991Z" transform="translate(-32.739 -171.248)" fill="#ddd"/>
      <path id="Path_20402" data-name="Path 20402" d="M70.414,239.7h0v10.34H99.665v-6.236h0v-4.1Z" transform="translate(-64.886 -212.051)" fill="#efefef"/>
      <path id="Path_20403" data-name="Path 20403" d="M70.359,239.7v10.34h2.052V239.7Z" transform="translate(-64.831 -212.051)" fill="#ddd"/>
      <path id="Path_20404" data-name="Path 20404" d="M39.079,9.588H1.116A1.116,1.116,0,0,0,.028,10.949L2.818,23.308a1.115,1.115,0,0,0,1.088.87H8.139c.165-.3.48-.221.843-.221.866,0,21.122-.026,22.23-.026.363,0,.678-.048.843.248h4.232a1.115,1.115,0,0,0,1.088-.87l2.791-12.359A1.116,1.116,0,0,0,39.079,9.588Z" transform="translate(0 0)" fill="#666"/>
      <path id="Path_20405" data-name="Path 20405" d="M5.1,23.308,2.312,10.949A1.116,1.116,0,0,1,3.4,9.588H1.116A1.116,1.116,0,0,0,.028,10.949L2.818,23.308a1.115,1.115,0,0,0,1.088.87H6.191A1.115,1.115,0,0,1,5.1,23.308Z" transform="translate(0)" fill="#535454"/>
      <path id="Path_20406" data-name="Path 20406" d="M92.544,231.977H63.294a.607.607,0,0,0-.607.607v10.34a.607.607,0,0,0,.607.607H92.544a.607.607,0,0,0,.607-.607v-10.34A.607.607,0,0,0,92.544,231.977Zm-4.712,8.166v-.818h4.105v.818Zm-7.977,0v-.818H81.3v.818Zm-2.659,0v-.818h1.446v.818Zm-2.659,0v-.818h1.446v.818Zm-2.659,0v-.818h1.446v.818Zm-7.977,0v-.818h4.105v.818Zm25.985-4.88h2.053v.818H87.833v-.818Zm2.053,2.849H89.162v-.818h2.776v.818Zm-5.435,0v-.818h1.446v.818Zm-2.659,0v-.818H85.29v.818Zm-2.659,0v-.818h1.446v.818Zm-2.659,0v-.818h1.446v.818Zm-2.659,0v-.818h1.446v.818Zm-1.936,0h-.723v-.818h1.446v.818Zm-3.382,0v-.818h1.446v.818Zm-2.659,0v-.818h1.446v.818Zm-3.989,0v-.818h2.776v.818Zm22.719-2.031H85.173v-.818h1.446v.818Zm-2.659,0H82.514v-.818H83.96Zm-2.659,0H79.855v-.818H81.3Zm-2.659,0H77.2v-.818h1.446v.818Zm-2.659,0H74.537v-.818h1.446Zm-2.659,0H71.878v-.818h1.446Zm-2.659,0H69.219v-.818h1.446Zm-2.659,0H66.559v-.818h1.446Zm-2.659,0H63.9v-.818h1.446Zm3.872,3.244h1.446v.818H69.219Zm13.3,0H83.96v.818H82.514Zm2.659,0h1.446v.818H85.173Zm6.764-5.275H90.492v-.86h1.446Zm-2.659,0H87.833v-.86h1.446Zm-2.659,0H85.173v-.86h1.446Zm-2.659,0H82.514v-.86H83.96Zm-2.659,0H79.855v-.86H81.3Zm-2.659,0H77.2v-.86h1.446Zm-2.659,0H74.537v-.86h1.446Zm-2.659,0H71.878v-.86h1.446Zm-2.659,0H69.219v-.86h1.446Zm-2.659,0H66.559v-.86h1.446Zm-4.105-.86h1.446v.86H63.9Zm0,8.166h1.446v.961H63.9Zm2.659,0h1.446v.961H66.559Zm2.659,0h1.446v.961H69.219Zm2.659,0H83.96v.961H71.878Zm13.3,0h1.446v.961H85.173Zm2.659,0h1.446v.961H87.833Zm4.105.961H90.492v-.961h1.446Z" transform="translate(-57.766 -204.93)" fill="#ccc"/>
      <path id="Path_20407" data-name="Path 20407" d="M65.346,242.923v-.607H63.9v-.961h1.446v-1.213H63.9v-.818h1.446v-1.213H63.9v-.818h1.446V236.08H63.9v-.818h1.446v-1.213H63.9v-.86h1.446v-.607a.607.607,0,0,1,.607-.607H63.294a.607.607,0,0,0-.607.607v10.34a.607.607,0,0,0,.607.607h2.659A.607.607,0,0,1,65.346,242.923Z" transform="translate(-57.766 -204.929)" fill="#bababa"/>
      <path id="Path_20408" data-name="Path 20408" d="M182.124,396.508a.7.7,0,0,0-.7.7v4.8a.7.7,0,0,0,.7.7h10.136a.7.7,0,0,0,.7-.7v-4.8a.7.7,0,0,0-.7-.7Z" transform="translate(-167.177 -356.545)" fill="#ccc"/>
      <path id="Path_20409" data-name="Path 20409" d="M183.844,402.01v-4.8a.7.7,0,0,1,.7-.7h-2.426a.7.7,0,0,0-.7.7v4.8a.7.7,0,0,0,.7.7h2.426A.7.7,0,0,1,183.844,402.01Z" transform="translate(-167.176 -356.545)" fill="#bababa"/>
      <path id="Path_20410" data-name="Path 20410" d="M65.8,48.131H35.891a.433.433,0,0,1-.422-.337L33.377,38.53A.433.433,0,0,1,33.8,38h34.09a.433.433,0,0,1,.422.528L66.22,47.793A.433.433,0,0,1,65.8,48.131Z" transform="translate(-30.747 -26.183)" fill="#377dff"/>
      <path id="Path_20411" data-name="Path 20411" d="M37.895,47.793,35.8,38.53A.433.433,0,0,1,36.225,38H33.8a.433.433,0,0,0-.422.528l2.092,9.263a.433.433,0,0,0,.422.337h2.426A.433.433,0,0,1,37.895,47.793Z" transform="translate(-30.747 -26.183)" fill="#82acfb"/>
      <path id="Path_20412" data-name="Path 20412" d="M68.311,38.53A.433.433,0,0,0,67.889,38H33.8a.433.433,0,0,0-.422.528l.4,1.767H67.912Z" transform="translate(-30.747 -26.183)" fill="#5d96ff"/>
      <path id="Path_20413" data-name="Path 20413" d="M36.225,38H33.8a.433.433,0,0,0-.422.528l.4,1.767H36.2l-.4-1.767A.433.433,0,0,1,36.225,38Z" transform="translate(-30.746 -26.183)" fill="#74a1f3"/>
      <path id="Path_20414" data-name="Path 20414" d="M125.313,189.12h-22.23a.965.965,0,1,0,0,1.931h22.23a.965.965,0,1,0,0-1.931Z" transform="translate(-94.1 -165.438)" fill="#535454"/>
      <path id="Path_20415" data-name="Path 20415" d="M104.544,190.085a.965.965,0,0,1,.965-.965h-2.426a.965.965,0,1,0,0,1.931h2.426A.965.965,0,0,1,104.544,190.085Z" transform="translate(-94.101 -165.438)" fill="#444443"/>
    </g>
  </g>
</svg>
