<svg xmlns="http://www.w3.org/2000/svg" width="56" height="56" viewBox="0 0 56 56">
  <g id="Group_14172" data-name="Group 14172" transform="translate(0.273 0.051)">
    <rect id="Rectangle_1537" data-name="Rectangle 1537" width="56" height="56" rx="20" transform="translate(-0.272 -0.051)" fill="none"/>
    <g id="_035-apple-watch" data-name="035-apple-watch" transform="translate(18.534 13.321)">
      <path id="Path_20416" data-name="Path 20416" d="M151.653,5.788c-10.235.053-9.971-.119-10.855.155h-.026a2.446,2.446,0,0,0,1.7-1.836l.218-3.251a.584.584,0,0,1,.449-.486A19.539,19.539,0,0,1,150.348.3a.466.466,0,0,1,.371.392l.236,3.387a2.41,2.41,0,0,0,1.6,1.826A3.466,3.466,0,0,0,151.653,5.788Z" transform="translate(-138.349 0)" fill="#377dff"/>
      <path id="Path_20417" data-name="Path 20417" d="M145.115,1.466,144.9,5.1a2.823,2.823,0,0,1-.993,1.673,11.627,11.627,0,0,0-3.106.155h-.026a2.446,2.446,0,0,0,1.7-1.836c.058-.856.212-3.216.225-3.282a.581.581,0,0,1,.443-.455,15.023,15.023,0,0,1,2.19-.307A.689.689,0,0,0,145.115,1.466Z" transform="translate(-138.349 -0.985)" fill="#286be5"/>
      <g id="Group_9741" data-name="Group 9741" transform="translate(16.718 10.446)">
        <path id="Path_20418" data-name="Path 20418" d="M384.936,177.735h-.186a.745.745,0,0,0-.743.743v1.114a.745.745,0,0,0,.743.743h.186a.745.745,0,0,0,.743-.743v-1.114A.745.745,0,0,0,384.936,177.735Z" transform="translate(-384.007 -177.735)" fill="#ccc"/>
        <path id="Path_20419" data-name="Path 20419" d="M384.936,266.926h-.186a.745.745,0,0,0-.743.743v2.869a.745.745,0,0,0,.743.743h.186a.745.745,0,0,0,.743-.743v-2.869A.745.745,0,0,0,384.936,266.926Z" transform="translate(-384.007 -261.684)" fill="#ccc"/>
      </g>
      <path id="Path_20420" data-name="Path 20420" d="M384.936,295.315h-.186a.745.745,0,0,1-.743-.743v1.987a.745.745,0,0,0,.743.743h.186a.745.745,0,0,0,.743-.743v-1.987A.745.745,0,0,1,384.936,295.315Z" transform="translate(-367.289 -277.259)" fill="#bababa"/>
      <path id="Path_20421" data-name="Path 20421" d="M141.826,411.061a3.461,3.461,0,0,1-1.027-.155h-.026a2.446,2.446,0,0,1,1.7,1.836c.058.854.212,3.217.225,3.282a.581.581,0,0,0,.443.455,19.567,19.567,0,0,0,7.205.066.466.466,0,0,0,.371-.392l.236-3.387a2.41,2.41,0,0,1,1.6-1.826C151.767,411.155,152.129,411.019,141.826,411.061Z" transform="translate(-138.35 -386.756)" fill="#377dff"/>
      <path id="Path_20422" data-name="Path 20422" d="M145.115,416.365l-.218-3.633a2.823,2.823,0,0,0-.993-1.673,11.625,11.625,0,0,1-3.106-.155h-.026a2.446,2.446,0,0,1,1.7,1.836l.218,3.251a.584.584,0,0,0,.449.486,15.008,15.008,0,0,0,2.191.307A.688.688,0,0,1,145.115,416.365Z" transform="translate(-138.349 -386.755)" fill="#286be5"/>
      <path id="Path_20423" data-name="Path 20423" d="M112.856,115.168h-9.828a3.479,3.479,0,0,1-3.475-3.475V99.883a3.479,3.479,0,0,1,3.475-3.475h9.828a3.479,3.479,0,0,1,3.475,3.475v11.81A3.479,3.479,0,0,1,112.856,115.168Z" transform="translate(-99.553 -90.742)" fill="#efefef"/>
      <path id="Path_20424" data-name="Path 20424" d="M101.226,111.694V99.884a3.479,3.479,0,0,1,3.475-3.475h-1.672a3.479,3.479,0,0,0-3.475,3.475v11.81a3.479,3.479,0,0,0,3.475,3.475H104.7A3.479,3.479,0,0,1,101.226,111.694Z" transform="translate(-99.554 -90.743)" fill="#ddd"/>
      <path id="Path_20425" data-name="Path 20425" d="M129.8,124.852a1.805,1.805,0,0,0-1.8,1.8v11.81a1.805,1.805,0,0,0,1.8,1.8h9.828a1.805,1.805,0,0,0,1.8-1.8v-11.81a1.805,1.805,0,0,0-1.8-1.8Z" transform="translate(-126.325 -117.514)" fill="#ccc"/>
      <path id="Path_20426" data-name="Path 20426" d="M129.807,138.465v-11.81a1.805,1.805,0,0,1,1.8-1.8H129.8a1.805,1.805,0,0,0-1.8,1.8v11.81a1.805,1.805,0,0,0,1.8,1.8h1.81A1.805,1.805,0,0,1,129.807,138.465Z" transform="translate(-126.325 -117.514)" fill="#bababa"/>
      <g id="Group_9742" data-name="Group 9742" transform="translate(3.13 8.782)">
        <path id="Path_20427" data-name="Path 20427" d="M185.381,352.448h-6.612a.454.454,0,1,1,0-.908h6.612a.454.454,0,1,1,0,.908Z" transform="translate(-176.816 -339.661)" fill="#efefef"/>
        <circle id="Ellipse_572" data-name="Ellipse 572" cx="0.832" cy="0.832" r="0.832" fill="#efefef"/>
      </g>
      <path id="Path_20428" data-name="Path 20428" d="M153.647,150.261a.831.831,0,0,1,0-.831.832.832,0,1,0,.72,1.247A.831.831,0,0,1,153.647,150.261Z" transform="translate(-149.685 -140.648)" fill="#ddd"/>
      <circle id="Ellipse_573" data-name="Ellipse 573" cx="4.602" cy="4.602" r="4.602" transform="translate(3.765 10.408)" fill="#898989"/>
      <path id="Path_20429" data-name="Path 20429" d="M165.793,186.941a4.6,4.6,0,0,1,.943-5.755A4.6,4.6,0,1,0,171.248,189,4.6,4.6,0,0,1,165.793,186.941Z" transform="translate(-159.838 -170.537)" fill="#777"/>
      <g id="Group_9743" data-name="Group 9743" transform="translate(7.853 12.244)">
        <path id="Path_20430" data-name="Path 20430" d="M233.627,211.592a.454.454,0,0,1-.454-.454V208.79a.454.454,0,1,1,.908,0v2.347A.454.454,0,0,1,233.627,211.592Z" transform="translate(-233.173 -208.336)" fill="#535454"/>
        <path id="Path_20431" data-name="Path 20431" d="M235.761,253.692a.452.452,0,0,1-.3-.113l-2.133-1.873a.454.454,0,1,1,.6-.682l2.133,1.873a.454.454,0,0,1-.3.8Z" transform="translate(-233.174 -248.408)" fill="#535454"/>
      </g>
      <circle id="Ellipse_574" data-name="Ellipse 574" cx="0.832" cy="0.832" r="0.832" transform="translate(11.941 8.782)" fill="#efefef"/>
      <path id="Path_20432" data-name="Path 20432" d="M303.542,150.261a.831.831,0,0,1,0-.831.832.832,0,1,0,.72,1.247A.831.831,0,0,1,303.542,150.261Z" transform="translate(-290.768 -140.648)" fill="#ddd"/>
      <circle id="Ellipse_575" data-name="Ellipse 575" cx="0.832" cy="0.832" r="0.832" transform="translate(7.501 14.214)" fill="#efefef"/>
      <path id="Path_20433" data-name="Path 20433" d="M227.986,241.861a.832.832,0,1,0,.72,1.247A.831.831,0,0,1,227.986,241.861Z" transform="translate(-219.653 -227.646)" fill="#ddd"/>
    </g>
  </g>
</svg>
