<svg xmlns="http://www.w3.org/2000/svg" width="48" height="48" viewBox="0 0 48 48">
  <g id="Group_14033" data-name="Group 14033" transform="translate(-0.58 -0.802)">
    <rect id="Rectangle_1537" data-name="Rectangle 1537" width="48" height="48" rx="20" transform="translate(0.58 0.802)" fill="none"/>
    <g id="_037-ipad" data-name="037-ipad" transform="translate(10.454 10.893)">
      <path id="Path_20540" data-name="Path 20540" d="M1.705,0A1.71,1.71,0,0,0,0,1.705V26.547a1.71,1.71,0,0,0,1.705,1.705H9.635V0Z" fill="#efefef"/>
      <path id="Path_20541" data-name="Path 20541" d="M1.654,26.547V1.705A1.71,1.71,0,0,1,3.36,0H1.705A1.71,1.71,0,0,0,0,1.705V26.547a1.71,1.71,0,0,0,1.705,1.705H3.36A1.71,1.71,0,0,1,1.654,26.547Z" fill="#ddd"/>
      <path id="Path_20542" data-name="Path 20542" d="M162.318,28.252H145.406a1.71,1.71,0,0,1-1.705-1.705V1.705A1.71,1.71,0,0,1,145.406,0h16.912a1.71,1.71,0,0,1,1.705,1.705V26.547A1.71,1.71,0,0,1,162.318,28.252Z" transform="translate(-135.772)" fill="#535454"/>
      <path id="Path_20543" data-name="Path 20543" d="M145.2,26.547V1.705A1.71,1.71,0,0,1,146.9,0h-1.5A1.71,1.71,0,0,0,143.7,1.705V26.547a1.71,1.71,0,0,0,1.705,1.705h1.5A1.71,1.71,0,0,1,145.2,26.547Z" transform="translate(-135.772)" fill="#444443"/>
      <path id="Path_20544" data-name="Path 20544" d="M187.77,45.239H171.246a.4.4,0,0,0-.4.4V66.9a.4.4,0,0,0,.4.4H187.77a.4.4,0,0,0,.4-.4V45.641A.4.4,0,0,0,187.77,45.239Z" transform="translate(-161.417 -42.743)" fill="#377dff"/>
      <path id="Path_20545" data-name="Path 20545" d="M172.549,66.9V45.641a.4.4,0,0,1,.4-.4h-1.705a.4.4,0,0,0-.4.4V66.9a.4.4,0,0,0,.4.4h1.705A.4.4,0,0,1,172.549,66.9Z" transform="translate(-161.417 -42.743)" fill="#82acfb"/>
      <g id="Group_9816" data-name="Group 9816" transform="translate(1.655 1.7)">
        <path id="Path_20546" data-name="Path 20546" d="M306.922,459.151a1.222,1.222,0,1,1,1.222-1.222A1.224,1.224,0,0,1,306.922,459.151Zm0-1.592a.37.37,0,1,0,.37.37A.37.37,0,0,0,306.922,457.56Z" transform="translate(-290.486 -433.207)" fill="#666"/>
        <circle id="Ellipse_594" data-name="Ellipse 594" cx="0.796" cy="0.796" r="0.796" fill="#666"/>
      </g>
      <path id="Path_20547" data-name="Path 20547" d="M30.776,31.622a.8.8,0,0,1,0-.8.8.8,0,1,0,.689,1.193A.8.8,0,0,1,30.776,31.622Z" transform="translate(-28.326 -29.126)" fill="#535454"/>
      <path id="Path_20548" data-name="Path 20548" d="M320.546,16.616a.4.4,0,0,1-.083-.009.408.408,0,0,1-.08-.024.382.382,0,0,1-.073-.039.413.413,0,0,1-.065-.053.388.388,0,0,1-.053-.065.431.431,0,0,1-.064-.153.415.415,0,0,1-.009-.084.42.42,0,0,1,.009-.084.441.441,0,0,1,.024-.08.433.433,0,0,1,.039-.073.366.366,0,0,1,.053-.065.417.417,0,0,1,.218-.117.428.428,0,0,1,.385.117.391.391,0,0,1,.053.065.435.435,0,0,1,.039.073.446.446,0,0,1,.024.08.444.444,0,0,1,0,.167.446.446,0,0,1-.024.08.435.435,0,0,1-.039.073.421.421,0,0,1-.053.065A.429.429,0,0,1,320.546,16.616Z" transform="translate(-302.456 -14.894)" fill="#666"/>
      <path id="Path_20549" data-name="Path 20549" d="M187.77,45.239H171.246a.4.4,0,0,0-.4.4v1.143h17.327V45.641A.4.4,0,0,0,187.77,45.239Z" transform="translate(-161.417 -42.743)" fill="#5d96ff"/>
      <path id="Path_20550" data-name="Path 20550" d="M172.951,45.239h-1.705a.4.4,0,0,0-.4.4v1.143h1.705V45.641A.4.4,0,0,1,172.951,45.239Z" transform="translate(-161.417 -42.743)" fill="#74a1f3"/>
      <path id="Path_20551" data-name="Path 20551" d="M216.538,391.765H215.4a.191.191,0,0,1-.19-.19v-1.141a.191.191,0,0,1,.19-.19h1.141a.191.191,0,0,1,.19.19v1.141A.191.191,0,0,1,216.538,391.765Z" transform="translate(-203.332 -368.711)" fill="#fff" opacity="0.5"/>
      <g id="Group_9817" data-name="Group 9817" transform="translate(15.512 21.534)" opacity="0.2">
        <path id="Path_20552" data-name="Path 20552" d="M282.444,391.765H281.3a.191.191,0,0,1-.19-.19v-1.141a.191.191,0,0,1,.19-.19h1.141a.191.191,0,0,1,.19.19v1.141A.191.191,0,0,1,282.444,391.765Z" transform="translate(-281.113 -390.244)" fill="#fff"/>
        <path id="Path_20553" data-name="Path 20553" d="M348.35,391.765h-1.141a.191.191,0,0,1-.19-.19v-1.141a.191.191,0,0,1,.19-.19h1.141a.191.191,0,0,1,.19.19v1.141A.191.191,0,0,1,348.35,391.765Z" transform="translate(-343.382 -390.244)" fill="#fff"/>
      </g>
      <path id="Path_20554" data-name="Path 20554" d="M414.257,391.765h-1.141a.191.191,0,0,1-.19-.19v-1.141a.191.191,0,0,1,.19-.19h1.141a.191.191,0,0,1,.19.19v1.141A.191.191,0,0,1,414.257,391.765Z" transform="translate(-390.141 -368.711)" fill="#fff" opacity="0.3"/>
      <path id="Path_20555" data-name="Path 20555" d="M216.538,283.407H215.4a.191.191,0,0,1-.19-.19v-1.141a.191.191,0,0,1,.19-.19h1.141a.191.191,0,0,1,.19.19v1.141A.191.191,0,0,1,216.538,283.407Z" transform="translate(-203.332 -266.332)" fill="#fff" opacity="0.6"/>
      <path id="Path_20556" data-name="Path 20556" d="M282.444,283.407H281.3a.191.191,0,0,1-.19-.19v-1.141a.191.191,0,0,1,.19-.19h1.141a.191.191,0,0,1,.19.19v1.141A.191.191,0,0,1,282.444,283.407Z" transform="translate(-265.601 -266.332)" fill="#fff" opacity="0.7"/>
      <path id="Path_20557" data-name="Path 20557" d="M348.35,283.407h-1.141a.191.191,0,0,1-.19-.19v-1.141a.191.191,0,0,1,.19-.19h1.141a.191.191,0,0,1,.19.19v1.141A.191.191,0,0,1,348.35,283.407Z" transform="translate(-327.871 -266.332)" fill="#fff" opacity="0.4"/>
      <path id="Path_20558" data-name="Path 20558" d="M414.257,283.407h-1.141a.191.191,0,0,1-.19-.19v-1.141a.191.191,0,0,1,.19-.19h1.141a.191.191,0,0,1,.19.19v1.141A.191.191,0,0,1,414.257,283.407Z" transform="translate(-390.141 -266.332)" fill="#fff" opacity="0.1"/>
      <path id="Path_20559" data-name="Path 20559" d="M216.538,227.839H215.4a.191.191,0,0,1-.19-.19v-1.141a.191.191,0,0,1,.19-.19h1.141a.191.191,0,0,1,.19.19v1.141A.191.191,0,0,1,216.538,227.839Z" transform="translate(-203.332 -213.83)" fill="#fff" opacity="0.2"/>
      <path id="Path_20560" data-name="Path 20560" d="M282.444,227.839H281.3a.191.191,0,0,1-.19-.19v-1.141a.191.191,0,0,1,.19-.19h1.141a.191.191,0,0,1,.19.19v1.141A.191.191,0,0,1,282.444,227.839Z" transform="translate(-265.601 -213.83)" fill="#fff" opacity="0.2"/>
      <path id="Path_20561" data-name="Path 20561" d="M348.35,227.839h-1.141a.191.191,0,0,1-.19-.19v-1.141a.191.191,0,0,1,.19-.19h1.141a.191.191,0,0,1,.19.19v1.141A.191.191,0,0,1,348.35,227.839Z" transform="translate(-327.871 -213.83)" fill="#fff" opacity="0.4"/>
      <path id="Path_20562" data-name="Path 20562" d="M414.257,227.839h-1.141a.191.191,0,0,1-.19-.19v-1.141a.191.191,0,0,1,.19-.19h1.141a.191.191,0,0,1,.19.19v1.141A.191.191,0,0,1,414.257,227.839Z" transform="translate(-390.141 -213.83)" fill="#fff" opacity="0.3"/>
      <path id="Path_20563" data-name="Path 20563" d="M216.538,172.27H215.4a.191.191,0,0,1-.19-.19v-1.141a.191.191,0,0,1,.19-.19h1.141a.191.191,0,0,1,.19.19v1.141A.191.191,0,0,1,216.538,172.27Z" transform="translate(-203.332 -161.327)" fill="#fff" opacity="0.9"/>
      <path id="Path_20564" data-name="Path 20564" d="M282.444,172.27H281.3a.191.191,0,0,1-.19-.19v-1.141a.191.191,0,0,1,.19-.19h1.141a.191.191,0,0,1,.19.19v1.141A.191.191,0,0,1,282.444,172.27Z" transform="translate(-265.601 -161.327)" fill="#fff" opacity="0.3"/>
      <path id="Path_20565" data-name="Path 20565" d="M348.35,172.27h-1.141a.191.191,0,0,1-.19-.19v-1.141a.191.191,0,0,1,.19-.19h1.141a.191.191,0,0,1,.19.19v1.141A.191.191,0,0,1,348.35,172.27Z" transform="translate(-327.871 -161.327)" fill="#fff" opacity="0.7"/>
      <path id="Path_20566" data-name="Path 20566" d="M414.257,172.27h-1.141a.191.191,0,0,1-.19-.19v-1.141a.191.191,0,0,1,.19-.19h1.141a.191.191,0,0,1,.19.19v1.141A.191.191,0,0,1,414.257,172.27Z" transform="translate(-390.141 -161.327)" fill="#fff" opacity="0.4"/>
      <path id="Path_20567" data-name="Path 20567" d="M216.538,116.7H215.4a.191.191,0,0,1-.19-.19v-1.141a.191.191,0,0,1,.19-.19h1.141a.191.191,0,0,1,.19.19v1.141A.191.191,0,0,1,216.538,116.7Z" transform="translate(-203.332 -108.825)" fill="#fff" opacity="0.1"/>
      <path id="Path_20568" data-name="Path 20568" d="M282.444,116.7H281.3a.191.191,0,0,1-.19-.19v-1.141a.191.191,0,0,1,.19-.19h1.141a.191.191,0,0,1,.19.19v1.141A.191.191,0,0,1,282.444,116.7Z" transform="translate(-265.601 -108.825)" fill="#fff" opacity="0.5"/>
      <path id="Path_20569" data-name="Path 20569" d="M348.35,116.7h-1.141a.191.191,0,0,1-.19-.19v-1.141a.191.191,0,0,1,.19-.19h1.141a.191.191,0,0,1,.19.19v1.141A.191.191,0,0,1,348.35,116.7Z" transform="translate(-327.871 -108.825)" fill="#fff" opacity="0.3"/>
      <path id="Path_20570" data-name="Path 20570" d="M414.257,116.7h-1.141a.191.191,0,0,1-.19-.19v-1.141a.191.191,0,0,1,.19-.19h1.141a.191.191,0,0,1,.19.19v1.141A.191.191,0,0,1,414.257,116.7Z" transform="translate(-390.141 -108.825)" fill="#fff" opacity="0.1"/>
    </g>
  </g>
</svg>
