<?xml version="1.0" encoding="UTF-8"?>
<svg id="Layer_2" data-name="Layer 2" xmlns="http://www.w3.org/2000/svg" viewBox="0 0 83 28.73">
  <defs>
    <style>
      .cls-1 {
        fill: #dbc37b;
      }

      .cls-2 {
        fill: #5447df;
      }
    </style>
  </defs>
  <g id="Mobit_Per_Typo_Main" data-name="Mobit Per Typo Main">
    <g>
      <circle class="cls-1" cx="73.42" cy="9.58" r="9.58"/>
      <g id="Typo_Per" data-name="Typo Per">
        <path id="Main_Typo" data-name="Main Typo" class="cls-2" d="m83,9.37c0-.07,0-.14,0-.21,0-.05,0-.11,0-.16,0-.14-.02-.27-.03-.41-.02-.15-.04-.31-.06-.46-.01-.09-.03-.19-.05-.28-.01-.07-.03-.14-.04-.21-.01-.07-.03-.13-.04-.19,0-.02,0-.04-.01-.06-.02-.07-.03-.14-.05-.2-.05-.21-.11-.41-.18-.61-.02-.05-.03-.11-.05-.16,0-.01,0-.02-.01-.03-.03-.09-.06-.18-.1-.26-.01-.04-.03-.07-.04-.11-.02-.05-.04-.11-.07-.16-.02-.05-.04-.1-.07-.16-.03-.06-.05-.12-.08-.18-.02-.05-.04-.09-.06-.14-.03-.05-.05-.11-.08-.16-.03-.05-.06-.11-.09-.16-.02-.05-.05-.09-.07-.13-.07-.13-.14-.25-.22-.37-.02-.04-.05-.08-.07-.12-.01-.02-.03-.04-.04-.07-.03-.05-.07-.1-.1-.16-.03-.04-.06-.08-.09-.13-.03-.05-.06-.09-.1-.13-.03-.04-.06-.08-.09-.12,0,0,0,0,0,0-.04-.05-.08-.11-.13-.16-.03-.05-.07-.09-.11-.14-.04-.05-.08-.1-.12-.14-.06-.07-.12-.14-.18-.21-.06-.07-.12-.13-.18-.2-.06-.07-.12-.13-.18-.19s-.13-.13-.19-.18c-.06-.06-.13-.12-.2-.18-.07-.06-.14-.12-.21-.18-.05-.04-.1-.08-.14-.12-.05-.04-.09-.07-.14-.11-.05-.04-.11-.09-.16-.13,0,0,0,0,0,0-.04-.03-.08-.06-.12-.09-.04-.03-.09-.06-.13-.1-.04-.03-.08-.06-.13-.09-.05-.04-.1-.07-.16-.1-.02-.01-.04-.03-.07-.04-.04-.02-.08-.05-.12-.07-.12-.08-.25-.15-.37-.22-.04-.03-.09-.05-.13-.07-.05-.03-.11-.06-.16-.09-.05-.03-.1-.05-.16-.08-.05-.02-.09-.04-.14-.06-.06-.03-.12-.06-.18-.08-.05-.02-.1-.05-.16-.07-.05-.02-.11-.04-.16-.07-.04-.01-.07-.03-.11-.04-.09-.03-.18-.07-.26-.1-.01,0-.02,0-.03-.01-.05-.02-.11-.04-.16-.05-.2-.07-.41-.13-.61-.18-.07-.02-.14-.03-.2-.05-.02,0-.04-.01-.06-.01-.07-.01-.13-.03-.19-.04-.07-.01-.14-.03-.21-.04-.09-.02-.18-.03-.28-.05-.15-.02-.3-.04-.46-.06-.14-.01-.27-.02-.41-.03-.05,0-.11,0-.16,0-.07,0-.14,0-.21,0-.07,0-.14,0-.21,0s-.14,0-.21,0c-.07,0-.14,0-.21,0-.05,0-.11,0-.16,0-.14,0-.27.02-.41.03-.15.02-.31.04-.46.06-.09.01-.19.03-.28.05-.07.01-.14.03-.21.04-.07.01-.13.03-.19.04-.02,0-.04,0-.06.01-.07.02-.14.03-.2.05-.21.05-.41.11-.61.18-.05.02-.11.03-.16.05-.01,0-.02,0-.03.01-.08.03-.16.06-.24.09-.05.02-.1.04-.15.06-.05.02-.1.04-.15.06-.05.02-.11.05-.16.07-.16.07-.31.14-.47.22-.07.03-.14.07-.2.11-.07.04-.13.07-.2.11,0,0-.01,0-.02.01-.09.05-.19.11-.28.17-.05.03-.09.06-.14.09-.05.03-.1.06-.14.1-.05.03-.09.06-.13.09-.04.03-.07.05-.11.08-.05.04-.11.08-.16.12-.04.03-.09.07-.13.1-.05.04-.1.08-.15.12-.06.05-.12.09-.17.14-.05.05-.11.09-.16.14-.01,0-.02.02-.03.03-.07.06-.13.12-.2.18-.07.06-.13.12-.19.18s-.13.13-.18.19c-.06.06-.12.13-.18.2,0,0-.01.02-.02.03-.05.05-.09.1-.14.16-.05.06-.1.12-.15.18-.04.05-.08.11-.13.16-.1.12-.19.25-.28.38-.03.04-.06.09-.09.13-.03.05-.07.1-.1.15-.03.04-.05.09-.08.13-.03.04-.05.08-.08.13-.03.06-.07.11-.1.17-.22.39-.42.79-.59,1.21-.02.05-.04.1-.06.15-.03.07-.06.15-.08.22,0,.01,0,.02-.01.03-.02.05-.04.11-.05.16-.07.2-.13.41-.18.61-.02.07-.03.14-.05.2,0,.02-.01.04-.01.06-.01.07-.03.13-.04.19-.01.07-.03.14-.04.21-.02.09-.03.18-.05.28-.02.15-.04.3-.06.46-.01.14-.02.27-.03.41,0,.05,0,.11,0,.16,0,.07,0,.14,0,.21,0,.07,0,.14,0,.21v6.38c-.08,0-.16,0-.24,0-.06,0-.12,0-.18,0,0,0-.01,0-.02,0-.05,0-.09,0-.14-.01-.1,0-.2-.02-.3-.03-.06,0-.13-.02-.19-.03-.07-.01-.14-.02-.21-.04-.08-.02-.17-.04-.25-.06-.05-.01-.1-.02-.14-.04-.41-.11-.8-.26-1.18-.45-.06-.03-.11-.06-.17-.09-.06-.03-.11-.06-.16-.09,0,0,0,0-.01,0-.17-.1-.34-.21-.5-.32-.04-.03-.08-.06-.12-.09-.12-.09-.24-.19-.36-.29-.03-.03-.07-.06-.1-.09,0,0-.01-.01-.02-.02-.03-.03-.07-.06-.1-.09-.08-.07-.15-.15-.23-.23-.03-.03-.06-.07-.09-.1,0,0-.01-.01-.02-.02-.03-.03-.06-.07-.09-.1-.1-.12-.2-.23-.29-.36-.03-.04-.06-.08-.09-.12-.12-.16-.22-.33-.32-.5,0,0,0,0,0-.01-.03-.05-.06-.11-.09-.16-.03-.05-.06-.11-.09-.17-.19-.37-.34-.77-.45-1.18-.01-.05-.03-.1-.04-.14-.02-.08-.04-.17-.06-.25-.01-.07-.03-.14-.04-.21-.01-.06-.02-.13-.03-.19-.01-.1-.03-.2-.03-.3,0-.05,0-.09-.01-.14,0,0,0-.01,0-.02,0-.06,0-.12,0-.18,0-.08,0-.16,0-.24V0h-3.19v9.58c0,.08,0,.16,0,.24,0,.06,0,.12,0,.18,0,0,0,.01,0,.02,0,.05,0,.09-.01.14,0,.1-.02.2-.03.3,0,.06-.02.13-.03.19-.01.07-.02.14-.04.21-.02.08-.04.17-.06.25-.01.05-.02.1-.04.14-.11.41-.26.8-.45,1.18-.03.06-.06.11-.09.17-.03.06-.06.11-.09.16,0,0,0,0,0,.01-.1.17-.21.34-.32.5-.03.04-.06.08-.09.12-.09.12-.19.24-.29.36-.03.03-.06.07-.09.1,0,0-.01.01-.02.02-.03.03-.06.07-.09.1-.07.08-.15.15-.23.23-.03.03-.07.06-.1.09,0,0-.01.01-.02.02-.03.03-.07.06-.1.09-.12.1-.23.2-.36.29-.04.03-.08.06-.12.09-.16.12-.33.22-.5.32,0,0,0,0-.01,0-.05.03-.11.06-.16.09-.05.03-.11.06-.17.09-.37.19-.77.34-1.18.45-.05.01-.1.03-.14.04-.08.02-.17.04-.25.06-.07.01-.14.03-.21.04-.06.01-.13.02-.19.03-.1.01-.2.03-.3.03-.05,0-.09,0-.14.01,0,0-.01,0-.02,0-.06,0-.12,0-.18,0-.08,0-.16,0-.24,0h-3.19V0h-3.19v9.58c0,.08,0,.16,0,.24,0,.06,0,.12,0,.18,0,0,0,.01,0,.02,0,.05,0,.09-.01.14,0,.1-.02.2-.03.3,0,.06-.02.13-.03.19-.01.07-.02.14-.04.21-.02.08-.04.17-.06.25-.01.05-.02.1-.04.14-.11.41-.26.8-.45,1.18-.03.06-.06.11-.09.17-.03.06-.06.11-.09.16,0,0,0,0,0,.01-.15.27-.33.52-.52.76-.04.05-.08.1-.12.15-.16.19-.32.36-.5.53-.22.21-.45.4-.69.57-.04.03-.08.06-.13.09-.04.03-.08.05-.12.08,0,0-.01,0-.02.01-.04.03-.08.05-.12.07-.04.02-.08.05-.12.07,0,0,0,0-.01,0-.05.03-.11.06-.16.09-.05.03-.11.06-.17.09-.37.19-.77.34-1.18.45-.05.01-.1.03-.14.04-.08.02-.17.04-.25.06-.07.01-.14.03-.21.04-.06.01-.13.02-.19.03-.1.01-.2.03-.3.03-.05,0-.09,0-.14.01,0,0-.01,0-.02,0-.06,0-.12,0-.18,0-.08,0-.16,0-.24,0h-3.19V0h-3.19v9.58c0,.08,0,.16,0,.24,0,.06,0,.12,0,.18,0,0,0,.01,0,.02,0,.05,0,.09-.01.14,0,.1-.02.2-.03.3,0,.06-.02.13-.03.19-.01.07-.02.14-.04.21-.02.08-.04.17-.06.25-.01.05-.02.1-.04.14-.11.41-.26.8-.45,1.18-.03.06-.06.11-.09.17-.03.06-.06.11-.09.16,0,0,0,0,0,.01-.15.27-.33.52-.52.76-.04.05-.08.1-.12.15-.16.19-.32.36-.5.53-.22.21-.45.4-.69.57-.04.03-.08.06-.13.09-.04.03-.08.05-.12.08,0,0-.01,0-.02.01-.04.03-.08.05-.12.07-.04.02-.08.05-.12.07,0,0,0,0-.01,0-.05.03-.11.06-.16.09-.05.03-.11.06-.17.09-.37.19-.77.34-1.18.45-.05.01-.1.03-.14.04-.08.02-.17.04-.25.06-.07.01-.14.03-.21.04-.06.01-.13.02-.19.03-.1.01-.2.03-.3.03-.05,0-.09,0-.14.01,0,0-.01,0-.02,0-.06,0-.12,0-.18,0-.08,0-.16,0-.24,0h-12.77c-.08,0-.16,0-.24,0-.06,0-.12,0-.18,0,0,0-.01,0-.02,0-.05,0-.09,0-.14-.01-.1,0-.2-.02-.3-.03-.06,0-.13-.02-.19-.03-.07-.01-.14-.02-.21-.04-.08-.02-.17-.04-.25-.06-.05-.01-.1-.02-.14-.04-.41-.11-.8-.26-1.18-.45-.06-.03-.11-.06-.17-.09-.06-.03-.11-.06-.16-.09,0,0,0,0-.01,0-.17-.1-.34-.21-.5-.32-.04-.03-.08-.06-.12-.09-.12-.09-.24-.19-.36-.29-.03-.03-.07-.06-.1-.09,0,0-.01-.01-.02-.02-.03-.03-.07-.06-.1-.09-.08-.07-.15-.15-.23-.23-.03-.03-.06-.07-.09-.1,0,0-.01-.01-.02-.02-.03-.03-.06-.07-.09-.1-.1-.12-.2-.23-.29-.36-.03-.04-.06-.08-.09-.12-.12-.16-.22-.33-.32-.5,0,0,0,0,0-.01-.03-.05-.06-.11-.09-.16-.03-.05-.06-.11-.09-.17-.19-.37-.34-.77-.45-1.18-.01-.05-.03-.1-.04-.14-.02-.08-.04-.17-.06-.25-.01-.07-.03-.14-.04-.21-.01-.06-.02-.13-.03-.19-.01-.1-.03-.2-.03-.3,0-.05,0-.09-.01-.14,0,0,0-.01,0-.02,0-.06,0-.12,0-.18,0-.08,0-.16,0-.24V0H0v9.58c0,.07,0,.14,0,.21,0,.07,0,.14,0,.21,0,.05,0,.11,0,.16,0,.14.02.27.03.41.02.15.04.31.06.46.01.09.03.19.05.28.01.07.03.14.04.21.01.07.03.13.04.19,0,.02,0,.04.01.06.02.07.03.14.05.2.05.21.11.41.18.61.02.05.03.11.05.16,0,.01,0,.02.01.03.03.09.06.18.1.26.01.04.03.07.04.11.02.05.04.11.07.16.02.05.04.1.07.16.03.06.05.12.08.18.02.05.04.09.06.14.03.05.05.11.08.16.03.05.06.11.09.16.02.05.05.09.07.13.11.19.22.37.33.55.03.05.07.1.1.16.03.04.06.08.09.13.03.05.06.09.1.13.03.04.06.08.09.12,0,0,0,0,0,0,.04.05.08.11.13.16.04.05.07.09.11.14.04.05.08.1.12.14.06.07.12.14.18.21.06.07.12.13.18.2.06.07.12.13.18.19.06.06.13.13.19.18.06.06.13.12.2.18.07.06.14.12.21.18.05.04.1.08.14.12.05.04.09.07.14.11.05.04.11.09.16.13,0,0,0,0,0,0,.04.03.08.06.12.09.04.03.09.06.13.1.04.03.08.06.13.09.05.04.1.07.16.1.18.12.37.23.55.33.04.03.09.05.13.07.05.03.11.06.16.09.05.03.1.05.16.08.05.02.09.04.14.06.06.03.12.06.18.08.05.02.1.05.16.07.05.02.11.04.16.07.04.01.07.03.11.04.09.03.18.07.26.1.01,0,.02,0,.03.01.05.02.11.04.16.05.2.07.41.13.61.18.07.02.14.03.2.05.02,0,.04.01.06.01.07.01.13.03.19.04.07.01.14.03.21.04.09.02.18.03.28.05.15.02.3.04.46.06.14.01.27.02.41.03.05,0,.11,0,.16,0,.07,0,.14,0,.21,0,.07,0,.14,0,.21,0h12.77c.07,0,.14,0,.21,0,.07,0,.14,0,.21,0,.05,0,.11,0,.16,0,.14,0,.27-.02.41-.03.15-.02.31-.04.46-.06.09-.01.19-.03.28-.05.07-.01.14-.03.21-.04.07-.01.13-.03.19-.04.02,0,.04,0,.06-.01.07-.02.14-.03.2-.05.21-.05.41-.11.61-.18.05-.02.11-.03.16-.05.01,0,.02,0,.03-.01.09-.03.18-.06.26-.1.04-.01.07-.03.11-.04.05-.02.11-.04.16-.07.05-.02.1-.04.16-.07.06-.03.12-.05.18-.08.05-.02.09-.04.14-.06.05-.03.11-.05.16-.08.05-.03.11-.06.16-.09.05-.02.09-.05.13-.07.19-.11.37-.22.55-.33.05-.03.1-.07.16-.1.04-.03.08-.06.13-.09.05-.03.09-.06.13-.1.04-.03.08-.06.12-.09,0,0,0,0,0,0,.05-.04.11-.08.16-.13.05-.04.09-.07.14-.11.05-.04.1-.08.14-.12.07-.06.14-.12.21-.18v2.44h6.38c.07,0,.14,0,.21,0,.07,0,.14,0,.21,0,.05,0,.11,0,.16,0,.14,0,.27-.02.41-.03.15-.02.31-.04.46-.06.09-.01.19-.03.28-.05.07-.01.14-.03.21-.04.07-.01.13-.03.19-.04.02,0,.04,0,.06-.01.07-.02.14-.03.2-.05.21-.05.41-.11.61-.18.05-.02.11-.03.16-.05.01,0,.02,0,.03-.01.09-.03.18-.06.26-.1.04-.01.07-.03.11-.04.05-.02.11-.04.16-.07.05-.02.1-.04.16-.07.06-.03.12-.05.18-.08.05-.02.09-.04.14-.06.05-.03.11-.05.16-.08.05-.03.11-.06.16-.09.05-.02.09-.05.13-.07.19-.11.37-.22.55-.33.05-.03.1-.07.16-.1.04-.03.08-.06.13-.09.05-.03.09-.06.13-.1.04-.03.08-.06.12-.09,0,0,0,0,0,0,.05-.04.11-.08.16-.13.05-.04.09-.07.14-.11.05-.04.1-.08.14-.12.07-.06.14-.12.21-.18v2.44h6.38c.07,0,.14,0,.21,0,.07,0,.14,0,.21,0,.05,0,.11,0,.16,0,.14,0,.27-.02.41-.03.15-.02.31-.04.46-.06.09-.01.19-.03.28-.05.07-.01.14-.03.21-.04.07-.01.13-.03.19-.04.02,0,.04,0,.06-.01.07-.02.14-.03.2-.05.21-.05.41-.11.61-.18.05-.02.11-.03.16-.05.01,0,.02,0,.03-.01.09-.03.18-.06.26-.1.04-.01.07-.03.11-.04.05-.02.11-.04.16-.07.05-.02.1-.04.16-.07.06-.03.12-.05.18-.08.05-.02.09-.04.14-.06.05-.03.11-.05.16-.08.05-.03.11-.06.16-.09.05-.02.09-.05.13-.07.19-.11.37-.22.55-.33.05-.03.1-.07.16-.1.04-.03.08-.06.13-.09.05-.03.09-.06.13-.1.04-.03.08-.06.12-.09,0,0,0,0,0,0,.05-.04.11-.08.16-.13.05-.04.09-.07.14-.11.05-.04.1-.08.14-.12.07-.06.14-.12.21-.18.07-.06.13-.12.2-.18.07-.06.13-.12.19-.18.06-.06.13-.13.18-.19.06-.06.12-.13.18-.2,0,0,.01-.02.02-.03.06-.07.12-.14.18-.21.07-.08.14-.17.21-.26.03-.03.05-.07.08-.1.05-.06.1-.13.14-.19,0,0,.01-.01.02-.02.07-.09.13-.19.19-.28.06.09.13.19.19.28,0,0,.01.01.02.02.05.07.09.13.14.19.03.03.05.07.08.1.07.09.13.17.21.26.06.07.12.14.18.21,0,0,.01.02.02.03.06.07.12.13.18.2.06.07.12.13.18.19.06.06.13.13.19.18.06.06.13.12.2.18.07.06.14.12.21.18.05.04.1.08.14.12.05.04.09.07.14.11.05.04.11.09.16.13,0,0,0,0,0,0,.04.03.08.06.12.09.04.03.09.06.13.1.04.03.08.06.13.09.05.04.1.07.16.1.18.12.37.23.55.33.04.03.09.05.13.07.05.03.11.06.16.09.05.03.1.05.16.08.05.02.09.04.14.06.06.03.12.06.18.08.05.02.1.05.16.07.05.02.11.04.16.07.04.01.07.03.11.04.09.03.18.07.26.1.01,0,.02,0,.03.01.05.02.11.04.16.05.2.07.41.13.61.18.07.02.14.03.2.05.02,0,.04.01.06.01.07.01.13.03.19.04.07.01.14.03.21.04.09.02.18.03.28.05.15.02.3.04.46.06.14.01.27.02.41.03.05,0,.11,0,.16,0,.07,0,.14,0,.21,0,.07,0,.14,0,.21,0h9.58c.07,0,.14,0,.21,0,.07,0,.14,0,.21,0,.05,0,.11,0,.16,0,.14,0,.27-.02.41-.03.15-.02.31-.04.46-.06.09-.01.19-.03.28-.05.07-.01.14-.03.21-.04.07-.01.13-.03.19-.04.02,0,.04,0,.06-.01.07-.02.14-.03.2-.05.21-.05.41-.11.61-.18.05-.02.11-.03.16-.05.01,0,.02,0,.03-.01.09-.03.18-.06.26-.1.04-.01.07-.03.11-.04.05-.02.11-.04.16-.07.05-.02.1-.04.16-.07.06-.03.12-.05.18-.08.05-.02.09-.04.14-.06.05-.03.11-.05.16-.08.05-.03.11-.06.16-.09.05-.02.09-.05.13-.07.19-.11.37-.22.55-.33.05-.03.1-.07.16-.1.04-.03.08-.06.13-.09.05-.03.09-.06.13-.1.04-.03.08-.06.12-.09,0,0,0,0,0,0,.05-.04.11-.08.16-.13.05-.04.09-.07.14-.11.05-.04.1-.08.14-.12.07-.06.14-.12.21-.18.07-.06.13-.12.2-.18.07-.06.13-.12.19-.18.06-.06.13-.13.18-.19.06-.06.12-.13.18-.2.06-.07.12-.14.18-.21.04-.05.08-.1.12-.14.04-.05.07-.09.11-.14.04-.05.09-.11.13-.16,0,0,0,0,0,0,.03-.04.06-.08.09-.12.03-.04.06-.09.1-.13.03-.04.06-.08.09-.13.04-.05.07-.1.1-.16.12-.18.23-.37.33-.55.03-.04.05-.09.07-.13.03-.05.06-.11.09-.16.03-.05.05-.1.08-.16.02-.05.04-.09.06-.14.03-.06.06-.12.08-.18.02-.05.05-.1.07-.16.02-.05.04-.11.07-.16.01-.04.03-.07.04-.11.03-.09.07-.18.1-.26,0-.01,0-.02.01-.03.02-.05.04-.11.05-.16.07-.2.13-.41.18-.61.02-.07.03-.14.05-.2,0-.02.01-.04.01-.06.01-.07.03-.13.04-.19.01-.07.03-.14.04-.21.02-.09.03-.18.05-.28.02-.15.04-.3.06-.46.01-.14.02-.27.03-.41,0-.05,0-.11,0-.16,0-.07,0-.14,0-.21,0-.07,0-.14,0-.21s0-.14,0-.21Zm-15.96,6.59v-6.38c0-.08,0-.16,0-.24,0-.06,0-.12,0-.18,0,0,0-.01,0-.02,0-.05,0-.09.01-.14,0-.1.02-.2.03-.3,0-.06.02-.13.03-.19.01-.07.02-.14.04-.21.02-.08.04-.17.06-.25.01-.05.02-.1.04-.14.11-.41.26-.8.45-1.18.03-.06.06-.11.09-.17.03-.06.06-.11.09-.16,0,0,0,0,0-.01.13-.23.28-.45.44-.66.03-.04.06-.08.1-.12.07-.08.13-.16.2-.24,0,0,0,0,0,0,.11-.13.23-.25.35-.37.06-.06.12-.11.18-.16.07-.07.15-.13.23-.2.04-.03.09-.07.13-.1.02-.02.05-.04.07-.06.05-.04.09-.07.14-.1.03-.02.06-.04.09-.06.07-.05.14-.1.22-.14.06-.04.12-.07.18-.11.08-.05.17-.1.26-.14.03-.02.07-.03.1-.05.1-.05.2-.09.3-.14.04-.02.07-.03.11-.05.05-.02.11-.04.16-.07.05-.02.09-.03.14-.05.08-.03.15-.05.23-.08.11-.03.23-.07.34-.1.04-.01.08-.02.11-.03.06-.01.12-.03.18-.04.04,0,.09-.02.13-.02.27-.05.54-.08.81-.09.05,0,.1,0,.15,0,.05,0,.11,0,.16,0,.08,0,.16,0,.24,0,.06,0,.12,0,.18,0,0,0,.01,0,.02,0,.05,0,.09,0,.14.01.1,0,.2.02.3.03.06,0,.13.02.19.03.07.01.14.02.21.04.08.02.17.04.25.06.05.01.1.02.14.04.41.11.8.26,1.18.45.06.03.11.06.17.09.06.03.11.06.16.09,0,0,0,0,.01,0,.17.1.34.21.5.32.04.03.08.06.12.09.12.09.24.19.36.29.03.03.07.06.1.09,0,0,.01.01.02.02.03.03.07.06.1.09.08.07.15.15.23.23.03.03.06.07.09.1,0,0,.01.01.02.02.03.03.06.07.09.1.1.12.2.23.29.36.03.04.06.08.09.12.12.16.22.33.32.5,0,0,0,0,0,.01.03.05.06.11.09.16.03.05.06.11.09.17.19.37.34.77.45,1.18.01.05.03.1.04.14.02.08.04.17.06.25.01.07.03.14.04.21.01.06.02.13.03.19.01.1.03.2.03.3,0,.05,0,.09.01.14,0,0,0,.01,0,.02,0,.06,0,.12,0,.18,0,.08,0,.16,0,.24s0,.16,0,.24c0,.06,0,.12,0,.18,0,0,0,.01,0,.02,0,.05,0,.09-.01.14,0,.1-.02.2-.03.3,0,.06-.02.13-.03.19-.01.07-.02.14-.04.21-.02.08-.04.17-.06.25-.01.05-.02.1-.04.14-.11.41-.26.8-.45,1.18-.03.06-.06.11-.09.17-.03.06-.06.11-.09.16,0,0,0,0,0,.01-.1.17-.21.34-.32.5-.03.04-.06.08-.09.12-.09.12-.19.24-.29.36-.03.03-.06.07-.09.1,0,0-.01.01-.02.02-.03.03-.06.07-.09.1-.07.08-.15.15-.23.23-.03.03-.07.06-.1.09,0,0-.01.01-.02.02-.03.03-.07.06-.1.09-.12.1-.23.2-.36.29-.04.03-.08.06-.12.09-.16.12-.33.22-.5.32,0,0,0,0-.01,0-.05.03-.11.06-.16.09-.05.03-.11.06-.17.09-.37.19-.77.34-1.18.45-.05.01-.1.03-.14.04-.08.02-.17.04-.25.06-.07.01-.14.03-.21.04-.06.01-.13.02-.19.03-.1.01-.2.03-.3.03-.05,0-.09,0-.14.01,0,0-.01,0-.02,0-.06,0-.12,0-.18,0-.08,0-.16,0-.24,0h-6.38Z"/>
        <rect class="cls-2" x="7.98" width="9.58" height="3.19"/>
        <rect class="cls-2" x="28.73" y="25.54" width="9.58" height="3.19"/>
        <rect class="cls-2" x="47.88" y="25.54" width="3.19" height="3.19"/>
      </g>
    </g>
  </g>
</svg>